<svg width="1440" height="1024" viewBox="0 0 1440 1024" fill="none" xmlns="http://www.w3.org/2000/svg">
<path d="M379.068 291.996C378.611 288.536 377.686 285.147 376.317 281.915C376.143 281.304 375.837 280.734 375.42 280.242C375.003 279.75 374.483 279.347 373.894 279.057C373.107 278.862 372.281 278.853 371.49 279.032L359.144 280.84C358.111 280.885 357.121 281.253 356.327 281.888C354.719 283.507 356.303 286.114 356.254 288.347C356.198 290.858 353.867 292.897 351.34 293.571C348.76 294.07 346.098 294.039 343.532 293.479L326.269 290.911C331.353 289.357 335.879 286.466 339.329 282.568C341.6 279.991 342.809 275.181 339.526 273.961C338.55 273.705 337.533 273.627 336.528 273.731C328.706 273.789 322.552 267.537 315.23 264.904C310.544 263.328 305.457 263.211 300.697 264.569C295.937 265.928 291.747 268.692 288.728 272.468L297.924 272.892C298.789 272.847 299.647 273.066 300.373 273.518C302.388 275.103 299.883 278.148 300.167 280.63C300.536 283.855 305.008 284.543 308.38 284.87C311.752 285.196 316.029 287.818 314.407 290.667C297.461 296.255 280.216 279.743 262.419 281.776C257.915 282.29 253.661 283.984 249.264 285.049C222.399 291.557 194.626 274.195 167.182 277.872C161.081 278.867 155.085 280.381 149.264 282.396C145.529 283.57 141.633 284.839 138.919 287.562C136.205 290.285 135.172 294.941 137.743 297.788C130.657 298.347 123.523 297.698 116.674 295.871C118.526 296.857 120.067 298.302 121.135 300.054C122.202 301.806 122.758 303.802 122.742 305.83C111.678 307.558 100.906 310.702 90.7174 315.179C92.619 318.206 94.8401 321.039 97.3458 323.632L83.3383 332.247C88.0707 333.389 90.5175 339.566 87.7654 343.425C92.6724 341.335 95.7135 335.929 100.961 334.833C104.398 334.114 107.896 335.461 111.157 336.725C114.418 337.99 118.002 339.216 121.378 338.267C124.754 337.318 127.244 333.127 125.099 330.457C139.529 326.427 154.441 324.196 169.467 323.821C170.627 323.682 171.802 323.896 172.828 324.432C174.784 325.731 174.269 328.537 174.164 330.814C174.058 333.091 175.912 336.083 178.038 335.057C175.537 337.133 177.675 341.041 180.074 343.224C182.473 345.408 185.365 348.42 183.896 351.26C183.513 352.001 182.863 352.594 182.494 353.342C181.405 355.549 183.134 358.123 185.173 359.589C187.212 361.055 189.709 362.08 191.126 364.11C192.542 366.14 191.899 369.693 189.366 369.977L182.167 361.226C179.707 363.668 178.021 366.727 177.304 370.049C184.938 376.023 186.086 388.184 179.695 395.372C176.429 399.046 171.784 401.278 167.731 404.143C163.677 407.008 159.926 411.088 159.936 415.912C159.954 424.246 159.242 431.989 162.505 439.716C168.52 453.963 175.465 467.835 183.298 481.248C185.356 484.77 188.014 488.631 192.181 489.237C186.915 476.963 182.174 464.497 177.958 451.841C180.704 451.851 183.877 452.06 185.486 454.19C186.819 455.953 186.533 458.35 186.947 460.491C187.474 462.564 188.352 464.541 189.547 466.342L214.697 509.23C216.782 512.786 219.173 516.602 223.158 518.042C225.705 518.962 228.653 518.789 230.997 520.114C232.835 521.153 234.073 522.997 235.947 523.976C241.245 526.742 248.612 521.436 253.563 524.74C254.979 525.684 255.879 527.185 257.184 528.266C261.757 532.057 269.258 529.521 274.536 532.349C277.938 534.172 279.702 537.817 281.516 541.12C286.062 549.394 293.416 557.501 303.157 558.16C306.217 558.367 309.343 557.811 312.333 558.463C315.324 559.114 318.269 561.613 317.789 564.514C316.966 569.486 319.532 574.931 318.843 579.922C317.587 589.013 304.117 593.009 302.96 602.112C302.707 604.105 303.103 606.163 302.607 608.114C302 610.505 300.124 612.452 299.458 614.828C298.194 619.332 301.565 623.815 305.268 626.845C308.971 629.875 313.388 632.488 315.412 636.73C317.552 641.214 316.501 646.441 317.197 651.325C318.716 661.988 328.336 669.892 338.236 674.989C341.252 676.542 344.491 678.045 346.443 680.739C348.992 684.255 348.738 688.89 349.589 693.091C351.673 703.38 360.72 711.858 360.977 722.336C361.159 729.783 356.835 736.539 354.252 743.566C351.831 750.298 350.954 757.451 351.683 764.538C352.412 771.624 354.729 778.476 358.475 784.627C360.408 787.751 362.719 790.696 364.086 794.082C366.525 800.125 365.733 806.994 367.983 813.104C370.956 821.182 379.127 827.855 378.345 836.387C382.054 843.761 390.245 847.385 398.481 849.58L413.243 853.513C416.07 854.267 419.023 855.026 421.901 854.48C424.779 853.935 427.526 851.647 427.452 848.839C420.213 847.276 412.742 845.614 406.775 841.391C400.807 837.168 396.72 829.648 398.984 822.883C400.034 819.746 402.267 816.123 400.144 813.531C398.928 812.047 396.705 811.659 395.333 810.305C393.194 808.193 393.929 804.645 395.467 802.098C397.005 799.551 399.227 797.275 399.847 794.393C400.161 792.781 399.951 791.116 399.248 789.622C398.544 788.127 397.38 786.874 395.912 786.03C398.649 785.041 401.138 783.512 403.218 781.542C405.14 779.441 406.027 776.203 404.516 773.815C409.004 774.36 414.303 774.627 417.25 771.34C419.603 768.715 419.441 764.79 418.511 761.448C417.582 758.106 416.01 754.859 415.961 751.401C426.316 751.87 436.693 751.534 446.99 750.393C445.501 745.592 442.117 741.535 437.556 739.083C442.22 738.327 446.469 732.982 447.942 728.679C449.415 724.376 449.04 719.69 448.129 715.246C447.779 714.102 447.731 712.893 447.989 711.727C448.514 710.125 450.159 709.147 451.68 708.311L474.828 695.583C476.21 694.921 477.462 694.036 478.53 692.967C480.955 690.24 480.596 686.123 479.354 682.744C478.112 679.366 476.123 676.188 475.645 672.636C474.214 662.012 486.094 654.389 490.103 644.389C491.676 640.464 491.997 636.198 492.301 632.004C492.628 627.5 492.653 622.268 489.04 619.366C485.577 616.583 480.166 617.204 476.543 614.616C473.221 612.243 472.075 607.635 468.445 605.718C465.149 603.978 461.017 605.085 457.351 604.266C450.897 602.825 446.836 595.704 440.244 595.044C436.525 594.672 432.316 596.413 429.268 594.339C426.582 592.512 426.474 588.84 425.963 585.724C425.067 580.881 422.642 576.417 419.015 572.933C415.388 569.45 410.733 567.115 405.678 566.241C401.843 565.652 397.669 565.876 394.407 563.859C391.104 561.816 389.589 557.991 386.995 555.162C382.813 550.603 376.227 548.983 370.057 547.594L344.961 541.946C340.506 540.944 334.764 540.412 332.373 544.148C331.665 545.571 331.164 547.079 330.884 548.632C329.988 551.44 328.185 553.904 325.735 555.67C323.284 557.436 320.312 558.413 317.245 558.46C315.142 555.025 311.734 552.501 307.733 551.414C305.189 550.735 302.465 550.66 300.038 549.661C298.716 549.043 297.54 548.174 296.581 547.106C295.622 546.038 294.902 544.794 294.462 543.45C294.023 542.106 293.875 540.691 294.027 539.29C294.18 537.89 294.629 536.534 295.347 535.305C296.794 532.839 297.353 529.985 296.937 527.185C296.522 524.384 295.155 521.793 293.048 519.81C288.78 516.142 282.607 515.256 276.884 515.623C275.385 512.492 277.891 508.959 280.592 506.684C283.292 504.409 286.571 502.172 287.16 498.774C288.085 493.43 280.962 489.371 275.553 490.964C270.145 492.558 266.693 497.587 264.411 502.544C263.102 505.389 261.989 508.384 259.924 510.782C257.858 513.181 254.533 514.898 251.387 514.128C246.934 513.039 245.214 507.973 244.228 503.675C242.906 497.909 241.576 492.062 241.853 486.164C242.13 480.266 244.207 474.21 248.75 470.218C256.153 463.711 267.509 464.349 277.5 465.387C275.139 462.841 275.723 458.55 278.248 456.154C279.581 455.02 281.183 454.214 282.915 453.807C284.647 453.399 286.457 453.403 288.187 453.816C291.198 454.416 293.91 455.968 295.887 458.223C298.726 461.537 299.533 466.011 301.679 469.773C303.825 473.534 308.65 476.742 312.6 474.724C316.011 472.981 316.553 468.453 315.704 464.841C314.855 461.23 313.051 457.718 313.359 454.028C313.946 446.987 321.57 442.748 328.298 439.848C335.026 436.949 342.73 433.049 343.795 426.059C343.832 424.691 344.102 423.337 344.594 422.052C345.34 420.917 346.377 419.983 347.606 419.34C367.242 406.917 387.204 394.342 409.646 387.554C410.814 387.201 410.951 387.594 412.141 387.317C413.806 386.395 412.703 383.846 411.106 382.82C409.509 381.793 407.375 381.005 406.97 379.205C406.672 377.882 407.487 376.582 407.698 375.244C408.218 371.955 404.108 368.919 400.917 370.234C399.114 367.948 402.681 365.292 405.566 364.532C414.227 362.25 423.118 360.859 432.087 360.384C433.122 360.227 434.182 360.399 435.105 360.876C436.611 361.875 436.419 364.166 435.351 365.592C434.284 367.018 432.623 367.913 431.292 369.12C429.839 370.476 428.802 372.187 428.295 374.069C427.788 375.95 427.831 377.928 428.419 379.788C433.101 382.068 438.192 384.415 443.378 383.612C448.564 382.809 453.167 377.23 450.729 372.775C448.459 368.626 441.641 367.691 440.468 363.144C439.095 357.82 446.967 353.085 445.194 347.871C444.417 345.587 442.04 344.243 440.215 342.594C438.061 340.572 436.595 337.973 436.011 335.14C435.427 332.306 435.751 329.37 436.942 326.716C433.97 327.216 430.917 327.027 428.037 326.165C425.157 325.302 422.536 323.791 420.392 321.758C416.434 317.933 413.276 311.9 407.654 312.071C402.496 312.228 398.053 317.989 393.23 316.232C392.043 315.799 390.792 314.919 389.642 315.435C389.265 315.669 388.949 315.982 388.717 316.351C388.485 316.719 388.344 317.133 388.304 317.561C387.078 323.172 389.187 329.564 385.993 334.412C382.517 339.688 374.478 340.419 370.264 345.176C367.977 347.759 367.091 351.239 364.988 353.961C362.886 356.684 358.424 358.415 355.901 356.042C357.141 353.602 357.479 350.831 356.861 348.182C356.243 345.533 354.705 343.164 352.498 341.461C350.155 339.998 347.63 338.822 344.982 337.961C342.022 336.762 339.207 335.26 336.585 333.481C335.272 332.722 334.204 331.629 333.503 330.323C332.948 328.688 333.022 326.917 333.713 325.33C334.993 321.818 337.25 318.708 340.241 316.335C343.232 313.962 346.843 312.415 350.685 311.863C354.044 311.426 357.954 311.58 360.177 309.13C361.354 307.833 361.971 305.873 363.678 305.346C364.77 305.136 365.904 305.27 366.911 305.727L379.449 309.952C380.848 310.557 382.388 310.801 383.916 310.66C384.674 310.562 385.365 310.194 385.85 309.629C386.336 309.063 386.581 308.343 386.535 307.613C386.134 305.619 382.93 304.663 383.222 302.652C383.385 302.001 383.751 301.412 384.271 300.963C388.796 296.352 394.33 292.756 400.477 290.433C406.623 288.109 413.231 287.115 419.826 287.522C421.408 290.01 418.905 292.957 416.823 295.081C414.74 297.205 413.067 301.001 415.585 302.636C416.617 303.14 417.765 303.388 418.924 303.356C422.011 303.756 425.011 304.627 427.81 305.936C432.143 307.741 436.392 309.716 440.559 311.862C440.191 309.231 439.84 306.461 440.881 304.002C441.922 301.542 444.882 299.614 447.467 300.571C449.958 301.494 451.236 304.652 453.89 304.942C457.43 305.327 458.827 300.32 457.348 297.217C455.869 294.113 452.941 291.514 452.697 288.111C452.532 285.815 453.445 282.968 451.529 281.577C450.847 281.16 450.074 280.9 449.269 280.819L401.436 272.392C398.595 271.891 394.491 272.275 394.365 275.037C394.295 276.579 395.734 278.105 395.097 279.522C394.417 281.035 392.182 280.897 390.555 281.432C388.03 282.263 386.763 285.133 387.006 287.678C387.45 290.207 388.473 292.611 390.002 294.717C386.89 293.471 382.179 293.242 379.068 291.996Z" fill="#3F3D56" fill-opacity="0.5"/>
<path d="M340.902 253.124C337.886 252.169 334.635 252.124 331.592 252.997C328.548 253.869 325.859 255.617 323.887 258.002C323.1 258.995 322.438 260.364 323.098 261.439C324.043 262.98 326.452 262.371 328.228 261.82C330.838 260.927 333.679 260.862 336.33 261.635C337.998 262.183 339.49 263.152 341.165 263.679C341.98 264.005 342.873 264.113 343.747 263.991C344.621 263.869 345.445 263.521 346.128 262.985C347.278 261.862 347.35 260.117 347.352 258.546C347.432 258.02 347.388 257.483 347.223 256.976C347.059 256.468 346.778 256.002 346.402 255.612C345.731 255.24 344.978 255.027 344.204 254.989C342.471 254.682 340.905 253.806 339.774 252.512" fill="#3F3D56" fill-opacity="0.5"/>
<path d="M358.15 248.527C357.475 248.492 356.802 248.623 356.195 248.909C355.589 249.195 355.069 249.625 354.687 250.159C354.304 250.693 354.072 251.311 354.011 251.956C353.951 252.601 354.064 253.249 354.341 253.839C356.414 254.381 358.58 254.516 360.709 254.237C361.771 254.079 362.76 253.624 363.552 252.929C364.344 252.234 364.904 251.329 365.16 250.33C362.653 250.767 360.067 250.294 357.905 249.004" fill="#3F3D56" fill-opacity="0.5"/>
<path d="M416.018 240.849C410.375 241.997 404.894 243.78 399.689 246.159C402.143 247.062 404.229 248.696 405.64 250.82C407.05 252.944 407.711 255.445 407.525 257.956C407.304 258.92 407.33 259.92 407.599 260.873C408.199 262.264 409.936 262.787 411.464 263.144C414.209 263.944 417.075 264.294 419.942 264.18C421.376 264.108 422.768 263.695 423.994 262.978C425.219 262.261 426.238 261.263 426.959 260.075C427.375 258.946 427.862 257.843 428.418 256.772C432.08 251.433 442.959 257.889 446.891 252.728C448.276 250.91 448.149 248.174 449.955 246.734C450.889 246.106 451.971 245.711 453.105 245.583C461.011 244.079 468.998 242.99 477.029 242.321C480.834 242.004 485.794 240.696 485.826 237.039C471.493 234.344 456.632 236.258 443.552 242.484C438.84 244.743 432.607 249.496 428.068 246.501C426.369 245.379 426.453 242.359 424.114 241.098C421.722 239.808 418.556 240.332 416.018 240.849Z" fill="#3F3D56" fill-opacity="0.5"/>
<path d="M462.89 249.24L469.618 250.478C468.38 250.425 467.144 250.626 465.993 251.067C464.842 251.508 463.803 252.179 462.944 253.035C462.085 253.891 461.427 254.913 461.014 256.032C460.6 257.15 460.44 258.341 460.545 259.523C466.846 261.538 473.715 259.577 480.352 259.845C486.989 260.113 494.711 264.652 493.578 270.918C493.235 272.813 492.092 274.706 492.687 276.543C493.103 277.83 494.289 278.744 494.959 279.929C496.354 282.4 495.239 285.525 493.477 287.771C491.716 290.017 489.349 291.809 487.803 294.196C483.957 300.132 486.142 307.806 488.433 314.438C489.095 316.944 490.318 319.282 492.017 321.291C495.411 324.745 500.941 325.046 505.894 325.115C509.499 325.165 513.628 324.995 515.908 322.321C518.884 318.83 516.803 313.384 518.762 309.287C520.542 305.566 525.076 303.97 529.184 302.837C536.709 300.763 544.379 299 551.493 295.867C560.328 291.977 568.585 285.914 578.295 285.413C581.019 285.273 583.811 285.581 586.435 284.866C589.059 284.152 591.552 281.98 591.353 279.375C591.183 277.149 589.216 275.515 587.68 273.837C586.143 272.159 584.936 269.579 586.348 267.804L611.8 263.253C609.996 258.546 608.591 252.347 612.736 249.283C614.232 248.177 616.235 247.735 617.508 246.399C619.679 244.121 618.588 240.197 616.082 238.26C613.576 236.323 610.188 235.873 606.979 235.618C595.818 234.731 584.594 235.317 573.412 235.904C551.555 237.051 529.697 238.198 507.839 239.345C503.438 239.576 498.358 239.223 494.322 240.66C490.906 241.877 488.477 244.11 484.569 244.895C477.356 246.343 469.418 245.363 462.89 249.24Z" fill="#3F3D56" fill-opacity="0.5"/>
<path d="M583.421 300.152C582.736 300.049 582.035 300.201 581.463 300.578C581.085 300.976 580.86 301.486 580.826 302.023C580.391 304.394 580.909 306.835 582.274 308.857C582.97 309.848 583.93 310.644 585.055 311.16C586.18 311.677 587.429 311.895 588.672 311.793C591.702 311.424 593.935 308.949 596.72 307.742C601.012 305.883 619.242 302.984 606.632 296.462C602.286 294.214 599.478 296.199 596.053 297.679C592.155 299.588 587.788 300.443 583.421 300.152Z" fill="#3F3D56" fill-opacity="0.5"/>
<path d="M693.874 245.558C692.402 246.134 691.17 247.161 690.371 248.478C690.003 249.146 689.918 249.925 690.133 250.652C690.347 251.379 690.846 252 691.525 252.385C692.075 252.576 692.658 252.664 693.243 252.646L699.23 252.817C701.774 252.89 704.951 253.408 705.634 255.755C706.142 257.497 705.006 259.736 706.377 260.982C706.965 261.418 707.672 261.682 708.413 261.742C710.386 262.227 712.445 262.291 714.446 261.929C718.803 260.81 716.513 258.264 717.885 255.998C719.985 252.53 719.621 254.629 723.32 252.642C726.052 251.174 729.582 248.511 727.302 244.77C723.337 238.265 699.725 242.763 693.874 245.558Z" fill="#3F3D56" fill-opacity="0.5"/>
<path d="M812.049 242.287L808.572 242.732C800.732 243.733 792.848 244.744 785.297 246.998C788.566 248.235 791.995 249.041 795.49 249.392C797.415 249.483 799.326 249.743 801.2 250.169C804.535 251.12 807.896 253.574 811.118 252.317C813.116 251.538 813.768 249.546 815.423 248.491C816.566 247.762 820.9 246.582 821.384 245.847C825.301 239.9 815.06 241.903 812.049 242.287Z" fill="#3F3D56" fill-opacity="0.5"/>
<path d="M827.315 257.415C822.671 259.901 818.363 262.921 814.485 266.41C812.852 267.88 811.183 269.708 811.332 271.85C811.528 274.696 814.696 276.347 817.44 277.459L828.554 281.964C829.902 280.145 828.668 277.633 827.275 275.846C825.881 274.058 824.225 271.989 824.841 269.838C825.543 267.383 828.67 266.546 831.292 266.123C835.565 265.434 847.089 265.489 845.704 258.898C844.073 251.131 831.604 255.12 827.315 257.415Z" fill="#3F3D56" fill-opacity="0.5"/>
<path d="M825.08 696.934C824.022 699.866 823.922 703.321 825.752 705.881C827.806 708.754 831.916 709.825 835.472 709.096C839.013 708.195 842.169 706.252 844.496 703.542C846.624 701.272 848.375 698.701 849.687 695.922C851.518 691.59 852.809 687.066 853.534 682.445L856.985 665.1C857.756 661.223 857.726 649.338 850.284 653.211C848.25 654.268 843.543 662.62 841.412 664.989C837.572 669.257 837.064 673.399 835.043 678.57C832.51 685.048 827.421 690.446 825.08 696.934Z" fill="#3F3D56" fill-opacity="0.5"/>
<path d="M1218.16 785.695C1215.73 784.785 1213.36 783.708 1211.09 782.472C1208.81 788.471 1207.6 794.794 1207.5 801.177L1224.17 792.15C1226.68 790.792 1229.52 788.905 1229.46 786.148C1229.49 785.808 1229.41 785.468 1229.25 785.164C1229.09 784.86 1228.84 784.604 1228.54 784.422C1228.17 784.28 1227.77 784.234 1227.37 784.291C1224.9 784.488 1222.65 785.652 1220.32 786.461C1217.99 787.271 1215.26 787.698 1213.12 786.497" fill="#3F3D56" fill-opacity="0.5"/>
<path d="M1306.07 791.054C1304.24 791.531 1302.45 792.145 1300.72 792.89C1296.9 794.753 1294.3 798.291 1290.86 800.745C1287.56 803.092 1283.6 804.381 1279.71 805.635C1278.56 806.603 1279.09 808.554 1280.33 809.405C1281.67 810.133 1283.2 810.463 1284.73 810.352C1288.78 810.438 1293.04 810.475 1296.58 808.606C1298.57 807.367 1300.44 805.948 1302.15 804.369C1306.29 801.062 1311.27 798.879 1316.19 796.771C1317.98 796.123 1319.64 795.175 1321.08 793.971C1324.17 791.054 1324.39 786.553 1319.93 785.56C1316.33 784.758 1309.5 789.992 1306.07 791.054Z" fill="#3F3D56" fill-opacity="0.5"/>
<path d="M1344.91 766.766C1345.11 764.758 1344.83 762.734 1344.09 760.845C1343.36 758.956 1342.18 757.252 1340.65 755.861C1340.61 759.877 1340.48 764.156 1338.12 767.477C1336.44 769.843 1333.81 771.441 1331.96 773.695C1330.12 775.949 1329.3 779.522 1331.47 781.499C1332.85 782.505 1334.53 783.06 1336.26 783.081C1340.56 783.566 1345.54 783.836 1348.56 780.862C1350.2 779.238 1351 776.834 1353.01 775.641C1353.76 775.34 1354.43 774.882 1354.97 774.302C1355.8 773.04 1354.48 771.377 1353 770.922C1351.51 770.468 1349.88 770.682 1348.39 770.25C1346.9 769.818 1345.53 768.214 1346.3 766.915" fill="#3F3D56" fill-opacity="0.5"/>
<path d="M1275.88 619.523C1273.62 620.048 1271.28 620.18 1268.98 619.912C1265.15 619.238 1262.17 616.476 1259.08 614.211C1251.73 608.855 1242.8 605.867 1233.57 605.677C1225.17 605.525 1216.69 607.704 1208.44 606.184C1208.98 609.054 1211.55 611.206 1214.28 612.485C1217.02 613.765 1220.04 614.408 1222.79 615.662C1227.2 617.689 1230.69 621.168 1232.63 625.461C1233.52 627.44 1234.07 629.594 1235.41 631.322C1238.16 634.854 1243.35 635.63 1247.94 635.341C1253.92 634.964 1260.17 633.318 1265.73 635.451C1269.99 637.083 1273.04 640.649 1276.59 643.423C1280.14 646.196 1285.15 648.254 1289.23 646.253C1284.99 644.939 1281.3 642.363 1278.7 638.9C1276.1 635.437 1274.72 631.268 1274.77 627.003C1278.77 627.355 1290.3 627.219 1289.68 620.708C1289.16 615.19 1279.31 618.927 1275.88 619.523Z" fill="#3F3D56" fill-opacity="0.5"/>
<path d="M1223.52 664.417C1224.23 660.685 1228.11 657.39 1226.9 653.778C1226.07 651.281 1223.04 650.048 1220.3 649.986C1217.56 649.925 1214.87 650.706 1212.13 650.779C1210.35 650.689 1208.56 650.713 1206.78 650.852C1201.35 651.708 1197.99 657.163 1192.87 659.103C1189.76 660.283 1186.26 660.057 1183.02 660.873C1175.66 662.724 1171.01 669.377 1165.86 674.742C1157.56 683.371 1146.73 689.414 1134.8 692.087C1130.62 693.014 1126.12 693.607 1122.8 696.207C1118.39 699.65 1117.31 705.554 1116.33 710.914C1113.62 725.719 1109.49 740.252 1103.98 754.325L1121.44 756.46C1124.76 756.866 1128.2 757.263 1131.4 756.321C1133.73 755.482 1135.93 754.359 1137.96 752.98C1145.73 748.357 1154.44 745.349 1163.51 744.15C1168.08 743.549 1172.88 743.439 1177.17 745.066C1181.46 746.694 1185.14 750.384 1185.5 754.79C1187.36 754.238 1189.34 754.178 1191.23 754.618C1193.12 755.057 1194.84 755.98 1196.23 757.287C1198.96 759.955 1200.75 763.377 1201.35 767.072C1201.81 769.359 1202.27 772.1 1204.48 773.06C1206.29 773.843 1208.37 772.999 1210.35 772.848C1217.06 772.333 1222.63 779.829 1229.23 778.538C1236.31 777.154 1238.05 767.006 1244.96 764.973C1248.92 763.805 1254.48 765.225 1256.38 761.693C1258.06 758.58 1254.72 754.988 1255.06 751.502C1255.49 747.21 1260.77 745.389 1264.85 743.557C1278.91 737.244 1285.58 719.134 1278.77 705.778C1274.73 697.864 1266.79 691.635 1265.32 682.941C1264.2 676.252 1266.95 668.453 1262.49 663.188C1260.23 660.51 1256.39 659.031 1255.04 655.836C1254.19 653.824 1254.54 651.542 1254.08 649.417C1253.62 647.292 1251.69 645.069 1249.49 645.62C1243.13 647.218 1241.1 666.035 1237.69 670.607C1232.52 677.557 1221.89 672.979 1223.52 664.417Z" fill="#3F3D56" fill-opacity="0.5"/>
<path d="M1105.91 626.632C1103.74 626.049 1101.36 625.474 1099.28 626.308C1097.19 627.142 1095.98 630.07 1097.65 631.523C1110.73 631.035 1123.89 630.551 1136.86 632.252C1151.81 634.211 1166.6 639.065 1181.6 637.637C1173.03 635.215 1164.32 633.279 1155.5 631.839L1140.81 629.152C1136.87 628.361 1132.89 627.772 1128.88 627.387C1120.5 626.724 1114.15 628.845 1105.91 626.632Z" fill="#3F3D56" fill-opacity="0.5"/>
<path d="M1119.01 583.017C1117.92 582.93 1116.57 582.855 1116.01 583.749C1115.48 584.603 1116.09 585.731 1115.8 586.689C1115.41 587.997 1113.62 588.331 1112.21 588.153C1110.8 587.975 1109.27 587.549 1108.02 588.2C1107.39 588.614 1106.91 589.214 1106.67 589.909C1106.42 590.605 1106.41 591.358 1106.65 592.057C1107.16 593.443 1107.99 594.704 1109.07 595.748C1110.92 597.977 1113.02 599.998 1115.35 601.774C1119.84 604.951 1125.93 606.482 1128.76 611.094C1129.16 611.988 1129.78 612.779 1130.56 613.403C1131.92 614.228 1133.69 613.6 1135.15 612.96L1140.28 610.716C1141.21 610.397 1142.03 609.86 1142.68 609.154C1143.85 607.632 1143.13 605.467 1142.15 603.827C1141.17 602.187 1139.91 600.489 1140.12 598.609C1140.49 595.256 1145 593.973 1146.85 591.105C1148.72 588.213 1147.5 584.487 1147.72 581.094C1147.97 577.126 1150.57 571.964 1146.38 568.999C1142.82 566.48 1139.42 568.808 1136.86 571.59C1131.47 577.456 1128.92 583.809 1119.01 583.017Z" fill="#3F3D56" fill-opacity="0.5"/>
<path d="M1150.15 523.727C1151.9 526.938 1155.55 528.854 1157.46 531.981C1159.53 535.37 1159.29 539.749 1161.54 543.033C1163.85 546.404 1168.48 548.193 1169.77 552.026C1171.19 556.212 1167.98 561.298 1170.54 564.955C1171.01 565.553 1171.61 566.049 1172.3 566.413C1172.99 566.777 1173.74 567.001 1174.53 567.069C1175.31 567.138 1176.1 567.051 1176.84 566.813C1177.59 566.575 1178.27 566.191 1178.85 565.686C1179.93 564.565 1180.5 563.086 1180.46 561.564C1180.41 560.042 1179.74 558.598 1178.6 557.539C1177.09 556.22 1174.92 555.651 1173.66 554.11C1173 553.221 1172.56 552.201 1172.38 551.127C1171.69 548.028 1171.8 544.815 1172.7 541.766C1173.04 540.992 1173.12 540.139 1172.95 539.318C1172.38 537.738 1170.14 537.626 1168.57 536.892C1165.01 535.227 1165.1 530.414 1165.72 526.665C1165.31 529.161 1156.02 524.916 1155.05 523.503C1153.12 520.694 1154.17 515.277 1153.78 512.174C1149.61 514.098 1148.01 519.802 1150.15 523.727Z" fill="#3F3D56" fill-opacity="0.5"/>
<path d="M1056.6 573.127C1054.89 571.29 1052.3 569.368 1050.01 570.476C1048.25 571.321 1047.77 573.643 1048.46 575.403C1049.3 577.113 1050.58 578.584 1052.2 579.67C1056.99 583.451 1062.14 586.863 1066.32 591.258C1073.8 599.123 1077.76 609.736 1085.89 616.981C1087.52 618.661 1089.68 619.782 1092.05 620.173C1094.41 620.384 1097.07 618.933 1097.35 616.67C1097.57 614.806 1096.21 613.138 1094.89 611.757C1091.73 608.469 1088.27 605.441 1085.29 602.005C1083.91 600.685 1083.05 598.955 1082.84 597.1C1082.82 595.25 1084.58 593.313 1086.46 593.772C1084.18 593.214 1082.49 589.582 1079.15 588.899C1076.36 588.329 1075.68 589.984 1072.35 588.619C1066.01 586.016 1061.04 577.885 1056.6 573.127Z" fill="#3F3D56" fill-opacity="0.5"/>
<path d="M1205.58 394.278C1203.76 393.76 1201.98 393.149 1200.23 392.446C1195.52 391.093 1189.29 394.406 1189.92 399.073C1190.33 402.173 1193.35 404.264 1195.01 406.954C1197.48 410.943 1196.82 416.002 1195.53 420.469C1195.21 421.852 1194.6 423.159 1193.75 424.314C1192.55 425.533 1191.11 426.519 1189.53 427.219C1183.17 430.632 1177.56 435.192 1173.02 440.647C1172.52 441.151 1172.18 441.772 1172.02 442.446C1171.8 444.022 1173.45 445.17 1174.39 446.484C1176.46 449.403 1174.96 453.332 1175.17 456.859C1175.14 457.358 1175.24 457.856 1175.46 458.306C1175.69 458.757 1176.03 459.144 1176.46 459.433C1177.71 460.042 1179.19 459.007 1179.87 457.83C1182.13 453.923 1180.43 447.651 1184.65 445.767C1185.45 445.411 1186.42 445.261 1186.96 444.588C1187.8 443.522 1186.99 441.943 1187.42 440.668C1188.06 438.754 1190.79 438.668 1192.89 438.753C1196.51 438.898 1200.12 438.438 1203.57 437.393C1204.92 437.085 1206.15 436.403 1207.1 435.433C1208.37 433.924 1208.25 431.778 1208 429.859C1206.74 420.292 1203.57 411.046 1198.68 402.618C1202.39 403.072 1206.43 403.465 1209.63 401.613C1211.42 400.576 1213.58 397.475 1212.69 395.364C1211.28 392.026 1208.74 394.836 1205.58 394.278Z" fill="#3F3D56" fill-opacity="0.5"/>
<path d="M729.686 446.892C730.131 449.173 730.567 451.575 729.786 453.772C729.006 455.968 726.549 457.804 724.23 457.131C722.43 456.608 721.39 454.876 720.112 453.555C713.003 446.208 696.966 450.461 692.574 441.372C690.782 437.663 692 433.219 690.778 429.303C690.007 427.04 688.472 425.086 686.415 423.748C684.359 422.411 681.896 421.765 679.414 421.912C677.15 422.225 674.947 422.855 672.875 423.781C658.991 429.104 644.415 432.595 629.549 434.155C626.723 434.32 623.929 434.807 621.224 435.606C615.119 437.724 610.948 443.142 607.98 448.671C605.012 454.199 602.82 460.185 598.841 465.097C594.659 470.259 588.798 473.874 583.331 477.784C581.225 479.083 579.471 480.842 578.214 482.917C577.029 485.247 577.096 487.956 577.188 490.546L578.305 521.997C578.449 526.043 578.629 530.233 580.521 533.853C582.882 538.374 587.548 541.335 590.785 545.328C594.088 549.432 595.808 554.503 595.655 559.682C595.586 561.764 595.37 564.226 597.064 565.534C598.094 566.174 599.3 566.506 600.528 566.488L644.968 569.97C652.786 570.582 661.449 571.589 666.553 577.291C668.962 579.982 670.897 583.852 674.586 584.141C676.169 584.265 677.709 583.643 679.291 583.523C683.285 583.22 686.793 586.122 689.007 589.318C692.358 594.189 693.879 600.007 693.321 605.815C692.958 609.461 691.777 613.006 691.522 616.66C690.554 630.565 702.867 642.646 703.105 656.58C703.246 664.776 699.181 672.434 695.219 679.7C701.614 688.975 696.378 701.325 698.924 712.168C701.339 722.455 710.298 730.508 712.531 740.832C713.553 745.559 713.612 751.375 717.965 753.809C719.876 754.701 721.993 755.107 724.115 754.988C736.912 755.133 749.563 752.376 761.033 746.942C766.416 744.385 771.995 740.567 772.935 734.884C773.693 730.302 771.266 725.176 773.736 721.184C776.648 716.48 784.107 716.853 788.391 713.236C795.34 707.368 789.921 696.177 792.737 687.725C795.268 680.128 803.981 676.092 808.3 669.273C809.999 666.341 811.219 663.176 811.916 659.89C813.895 652.035 815.126 644.024 815.596 635.957C815.711 631.055 816.089 626.163 816.727 621.298C821.383 593.603 849.983 575.057 859.269 548.452C860.155 545.911 860.572 542.526 858.211 541.089C856.81 540.449 855.222 540.29 853.714 540.638L833.228 543.111C830.683 543.418 827.986 543.705 825.65 542.693C823.313 541.681 821.638 538.851 822.877 536.702C826.357 530.668 819.2 523.043 816.02 516.86C807.456 500.21 797.259 484.378 785.565 469.576C784.816 468.814 784.347 467.84 784.229 466.801L790.044 466.986C788.081 460.244 784.842 452.866 778 450.399C774.145 449.01 769.875 449.49 765.761 449.705C753.979 450.322 741.348 448.619 729.686 446.892Z" fill="#3F3D56" fill-opacity="0.5"/>
<path d="M765.771 294.957C768.854 298.092 772.309 301.415 776.77 301.962C784.649 302.927 790.314 295.126 793.921 288.351C794.055 290.078 794.887 291.688 796.241 292.837C797.594 293.986 799.363 294.584 801.17 294.504C803.115 294.19 804.971 293.495 806.623 292.463C822.234 284.295 839.719 279.968 857.509 279.869C857.338 278.579 857.673 277.274 858.448 276.206C859.223 275.138 860.383 274.383 861.706 274.086C865.323 273.399 868.581 276.393 870.326 279.503C872.071 282.613 873.159 286.217 875.931 288.545C878.703 290.873 884.07 290.772 885.165 287.401C886.216 284.164 882.695 281.405 879.769 279.497C876.843 277.589 873.759 274.057 875.729 271.242C890.677 268.074 905.717 264.895 921.012 264.265C923.616 264.352 926.211 263.924 928.634 263.008C930.967 261.912 932.821 259.425 932.194 257.011C928.856 257.762 925.36 257.544 922.152 256.386C918.944 255.227 916.169 253.181 914.181 250.506C935.404 248.83 957.977 247.4 976.785 256.961C979.042 261.599 967.539 265.459 970.616 269.642C971.598 270.977 973.565 271.133 975.269 271.163C988.34 271.396 1001.49 271.624 1014.41 269.735C1019.13 269.044 1023.9 268.07 1028.64 268.629C1036.54 269.562 1043.29 274.606 1051.06 276.251C1054.22 276.92 1057.77 276.943 1060.44 275.182C1063.1 273.422 1064.25 269.412 1062.06 267.123C1069.38 260.259 1081.52 261.961 1091.17 265.247C1100.82 268.533 1109.96 273.832 1120.18 274.564C1127.5 275.09 1134.93 273.203 1142.17 274.402C1146.71 275.156 1150.95 277.093 1155.39 278.283C1163.8 280.533 1172.69 280.058 1181.42 280.167C1203.69 280.454 1225.72 284.644 1246.41 292.53C1249.11 293.37 1251.57 294.765 1253.64 296.617C1255.57 298.591 1256.55 301.659 1255.25 304.059L1233.87 301.068C1235.88 304.865 1241.1 305.512 1245.33 306.822C1249.56 308.132 1253.95 312.607 1251.41 316.101C1246.82 314.703 1242.66 319.093 1240.35 323.132C1238.03 327.171 1235.21 332.008 1230.4 332.254C1226.1 332.475 1220.89 328.966 1218.09 332.099C1221.96 336.78 1225.28 341.86 1227.98 347.244C1230.75 352.772 1232.73 359.738 1228.98 364.711C1228.39 365.599 1227.5 366.263 1226.45 366.588C1223.39 367.33 1221.41 363.747 1219.21 361.575C1216.45 358.838 1212.27 358.063 1208.52 356.779C1204.78 355.496 1200.83 352.971 1200.54 349.174C1200.36 346.812 1201.66 344.615 1202.62 342.432C1204.23 338.752 1204.94 334.765 1204.68 330.782C1204.47 327.577 1203.53 324.243 1201.13 322.004C1198.72 319.765 1194.57 319.054 1191.99 321.105C1190.79 322.062 1189.82 323.593 1188.26 323.65C1185.5 323.751 1183.37 319.139 1181.15 320.714C1181.41 322.391 1181.05 324.103 1180.12 325.55C1173.49 331.074 1163.3 328.737 1154.75 330.688C1150.68 331.802 1146.79 333.43 1143.17 335.529C1141.81 336.083 1140.66 337.008 1139.86 338.188C1138.79 340.175 1139.97 342.718 1141.85 344.039C1143.85 345.211 1146.09 345.943 1148.42 346.184C1158.84 348.075 1169.42 351.001 1177.65 357.413C1185.88 363.824 1191.28 374.423 1188.68 384.271L1168.12 365.462C1168.9 373.36 1169.34 381.279 1169.45 389.22C1169.58 390.771 1169.36 392.33 1168.79 393.79C1167.33 396.889 1163.35 397.932 1159.87 398.617C1158.91 398.793 1157.99 399.163 1157.18 399.703C1156.37 400.243 1155.69 400.941 1155.18 401.75C1154.68 402.56 1154.36 403.463 1154.24 404.4C1154.12 405.337 1154.22 406.286 1154.51 407.187C1155.75 411.047 1158.83 414.056 1161.65 417.055C1164.48 420.053 1167.26 423.461 1167.63 427.483C1168 431.505 1164.83 436.038 1160.62 435.758C1157.43 435.546 1155.07 432.813 1153.7 430.043C1152.34 427.273 1151.53 424.188 1149.49 421.835C1143.3 414.712 1129.41 417.763 1123.87 410.17C1122.45 411.704 1121.47 413.558 1121.02 415.557C1120.57 417.555 1120.65 419.631 1121.27 421.589C1123.85 420.043 1127.38 421.479 1129.32 423.724C1131.26 425.97 1132.17 428.848 1133.69 431.37C1135.74 434.773 1139.01 437.789 1139.3 441.709C1139.22 443.192 1139.25 444.677 1139.38 446.156C1139.89 448.531 1141.98 450.237 1143.44 452.222C1146.82 456.842 1146.65 463.188 1144.47 468.429C1142.29 473.67 1138.37 478.05 1134.49 482.296C1127.72 489.713 1120.8 497.086 1112.77 503.245C1110.47 505.002 1108.03 506.731 1106.6 509.188C1105.17 511.645 1105.1 515.094 1107.29 516.963C1105.72 517.038 1102.91 517.777 1101.34 517.852C1100.78 511.823 1100.66 505.764 1100.98 499.718C1094.78 496.87 1088.11 504.498 1088.91 511.033C1089.71 517.568 1094.65 522.813 1098.16 528.467C1100.73 532.602 1102.64 537.423 1101.78 542.164C1100.93 546.905 1096.51 551.279 1091.5 550.861C1083.53 550.196 1080.2 539.25 1072.32 537.997C1071.62 537.841 1070.89 537.91 1070.24 538.194C1069.07 538.809 1068.87 540.309 1068.8 541.586C1068.48 547.853 1068.2 554.37 1070.75 560.148C1074.49 568.602 1084.15 575.702 1082.12 584.674C1071.21 579.817 1065.54 568.1 1062.96 556.845C1060.38 545.589 1059.95 533.774 1055.33 523.133C1051.83 527.437 1044.46 523.879 1041.25 519.365C1038.21 515.085 1036.34 510.134 1033.4 505.797C1030.45 501.459 1025.93 497.575 1020.54 497.337C1014.87 497.086 1009.96 500.805 1005.65 504.319C1002.1 507.209 998.452 510.212 996.376 514.207C993.356 520.019 994.146 526.871 994.001 533.361C993.843 540.378 992.29 547.781 987.295 552.918C982.3 558.054 973.079 559.844 967.57 555.214C964.693 552.797 963.3 549.186 962.06 545.72C956.08 529.012 951.1 511.991 947.143 494.74C946.217 498.678 942.606 503.752 939.156 501.433C938.382 500.81 937.755 500.036 937.316 499.163C930.88 488.721 918.963 482.458 906.921 478.703C894.88 474.947 882.211 473.196 870.303 469.068C863.63 466.755 857.256 463.715 851.307 460.01C849.791 462.143 848.905 464.629 848.745 467.205C848.584 469.78 849.154 472.349 850.394 474.64C853.036 479.118 859.013 481.708 864.13 480.143C866.774 479.334 869.007 477.577 871.63 476.709C874.254 475.841 877.775 476.268 878.922 478.687C880.02 481.004 878.361 483.806 879.184 486.224C880.438 489.907 886.241 490.191 888.27 493.543C889.78 496.037 888.537 499.348 886.382 501.361C884.226 503.373 881.35 504.477 878.719 505.877C870.181 510.423 864.109 518.182 856.648 524.218C849.186 530.255 838.659 534.662 829.766 530.79C831.886 520.514 819.1 512.97 816.748 502.741C815.974 499.374 816.375 495.798 815.27 492.517C813.67 487.766 809.267 484.5 805.656 480.9C801.275 476.487 797.863 471.278 795.619 465.581C793.376 459.884 792.347 453.814 792.594 447.731C792.789 443.503 793.6 439.207 792.594 435.086C791.588 430.965 788.025 426.977 783.609 427.164C773.523 427.59 760.817 428.309 755.525 420.077C753.636 417.14 752.815 412.837 755.545 410.587C757.471 408.999 760.315 409.148 762.844 409.387L785.569 411.527C790.884 412.027 796.63 412.44 801.191 409.78C805.752 407.12 807.728 400.059 803.505 396.929C800.419 394.643 794.89 394.767 793.993 391.131C793.246 388.103 796.747 384.667 794.856 382.137C793.501 380.322 790.453 380.826 788.606 382.186C786.758 383.546 785.418 385.535 783.351 386.565C779.725 388.372 775.392 386.652 771.491 385.484C767.59 384.315 762.359 384.216 760.467 387.685C758.351 391.564 762.344 396.648 760.244 400.536C757.467 405.675 748.063 402.749 744.164 407.17C739.689 412.243 747.209 419.808 745.7 426.289C743.773 427.202 741.632 427.622 739.485 427.506C737.338 427.391 735.26 426.745 733.452 425.63C731.674 424.472 730.257 422.875 729.352 421.008C728.446 419.141 728.087 417.073 728.311 415.026C728.685 412.111 730.272 409.135 729.208 406.38C728.348 404.152 726.012 402.826 723.841 401.677L701.757 389.995C699.707 393.636 702.299 398.15 705.541 400.885C708.783 403.62 712.843 405.68 714.973 409.279C716.32 411.772 716.622 414.664 715.817 417.364C715.012 420.064 713.161 422.367 710.642 423.805C710.326 424.013 709.967 424.154 709.589 424.217C709.211 424.28 708.824 424.264 708.453 424.17C708.1 423.972 707.793 423.708 707.549 423.394C707.306 423.08 707.13 422.723 707.033 422.343C703.137 412.797 697.287 403.385 687.934 398.398C678.581 393.412 665.142 394.437 659.009 402.837C657.552 404.832 656.574 407.107 655.305 409.216C648.563 420.423 634.108 425.73 620.604 425.384C619.283 425.454 617.969 425.158 616.818 424.532C614.636 423.089 614.734 420.027 615.068 417.508L616.486 406.817C616.771 404.671 617.183 402.298 618.958 400.958C621.46 399.069 625.069 400.261 628.255 400.217C630.668 400.109 632.989 399.293 634.902 397.879C636.815 396.466 638.228 394.524 638.949 392.316C639.592 390.086 639.588 387.73 638.937 385.503C638.285 383.275 637.011 381.26 635.252 379.674C633.792 378.361 631.832 376.712 632.603 374.942C632.911 374.452 633.327 374.033 633.822 373.714C634.317 373.395 634.879 373.183 635.469 373.094C641.192 371.503 647.239 371.086 652.866 369.209C658.494 367.332 663.951 363.491 665.284 357.93C665.692 356.226 665.878 354.162 667.477 353.317C668.279 352.993 669.141 352.824 670.012 352.822C673.062 352.406 675.84 350.912 677.798 348.634C679.756 346.356 680.753 343.459 680.591 340.512C683.288 338.708 687.066 340.035 689.675 341.954C692.285 343.873 694.588 346.408 697.763 347.235C703.679 348.777 709.396 343.762 715.528 343.739C718.106 343.729 720.776 344.602 723.201 343.765C725.66 342.917 727.129 340.573 729.016 338.842C730.904 337.11 734.215 336.054 735.958 337.92L734.474 327.396C737.463 328.119 740.579 328.221 743.612 327.696C746.645 327.171 749.527 326.031 752.062 324.352L732.881 318.147C732.214 317.988 731.597 317.672 731.088 317.229C729.693 315.792 731.078 313.552 732.212 311.918C734.925 308.008 735.38 301.569 730.919 299.623C727.875 298.295 724.38 299.889 721.457 301.449L707.458 308.922C707.013 311.469 710.267 312.913 712.284 314.629C713.504 315.667 714.367 317.035 714.761 318.551C715.154 320.068 715.059 321.663 714.489 323.127C713.918 324.591 712.898 325.855 711.563 326.754C710.227 327.653 708.64 328.145 707.007 328.164C707.929 329.311 708.57 330.642 708.881 332.059C709.193 333.475 709.168 334.941 708.808 336.347L699.389 336.995C698.332 337.199 697.233 336.994 696.334 336.424C695.326 335.568 695.463 334.067 695.23 332.796C694.666 329.73 691.53 327.581 688.329 327.03C685.129 326.479 681.854 327.186 678.685 327.883C677.339 328.347 675.862 328.314 674.54 327.791C673.782 327.32 673.206 326.624 672.9 325.81C671.51 322.584 672.809 318.793 675.04 316.035C677.272 313.277 680.327 311.261 683.071 308.965C689.632 303.453 694.452 296.295 696.988 288.299C702.173 286.22 707.541 283.394 712.726 281.314C720.72 277.439 729.685 275.776 738.612 276.512L756.172 276.833C761.371 276.928 766.711 277.05 771.518 278.948C776.326 280.845 780.55 284.949 780.882 289.917C780.982 290.48 780.931 291.057 780.734 291.596C780.537 292.134 780.2 292.616 779.756 292.996C779.077 293.35 778.308 293.516 777.536 293.475C772.687 293.638 770.62 294.794 765.771 294.957Z" fill="#3F3D56" fill-opacity="0.5"/>
<path d="M625.806 347.644C626.492 347.022 626.986 346.231 627.233 345.358C627.481 344.486 627.472 343.564 627.208 342.696C625.538 342.079 623.722 341.921 621.964 342.239C620.205 342.557 618.575 343.338 617.255 344.495C616.215 345.503 615.318 346.637 614.589 347.87C612.281 351.474 610.24 355.779 611.578 359.807C611.687 360.247 611.886 360.661 612.165 361.025C612.443 361.39 612.795 361.697 613.199 361.93C613.798 362.16 614.444 362.257 615.089 362.213C617.631 362.21 620.17 362.061 622.693 361.765C624.243 361.584 626.043 361.165 626.641 359.785C627.429 357.971 625.523 355.918 626.079 354.026C626.444 353.181 626.998 352.422 627.701 351.802C628.05 351.49 628.319 351.104 628.485 350.676C628.651 350.247 628.71 349.787 628.658 349.333C628.434 348.445 627.015 347.942 626.504 348.713" fill="#3F3D56" fill-opacity="0.5"/>
<path d="M638.988 331.283C636.729 330.787 634.402 330.647 632.096 330.869C631.586 330.855 631.081 330.965 630.628 331.189C630.189 331.499 629.87 331.94 629.723 332.443C629.236 333.939 629.356 335.556 630.058 336.971C630.761 338.387 631.994 339.497 633.513 340.081C634.341 340.263 635.134 340.568 635.864 340.985C637.813 342.433 636.57 345.392 636.939 347.727C637.353 350.349 640.005 352.55 639.518 355.16C639.136 357.217 636.841 358.846 637.21 360.905C637.597 363.062 640.456 363.71 642.734 363.882C644.055 364.104 645.414 363.955 646.648 363.453C647.885 362.643 648.765 361.424 649.117 360.03C650.05 357.371 650.442 354.567 650.272 351.767C650.262 350.494 649.928 349.242 649.299 348.12C648.613 347.231 647.852 346.398 647.025 345.627C642.659 340.766 647.256 333.514 638.988 331.283Z" fill="#3F3D56" fill-opacity="0.5"/>
<path opacity="0.8" d="M1213.05 712.112C1213.05 712.112 878.693 528.371 734.746 563.185C734.746 563.185 429.681 594.614 394.326 663.759C394.326 663.759 297.351 373.641 261.996 363.97" stroke="#DC2F02" stroke-opacity="0.5" stroke-width="2" stroke-miterlimit="10"/>
<path opacity="0.8" d="M394.326 663.759C450.389 520.634 955.464 362.036 955.464 362.036C883.744 379.443 734.746 563.185 734.746 563.185C734.746 563.185 419.579 343.662 261.996 363.97C261.996 363.97 955.97 385.729 1213.05 712.112" stroke="#DC2F02" stroke-opacity="0.5" stroke-width="2" stroke-miterlimit="10"/>
<path d="M261.996 377.993C270.085 377.993 276.643 371.715 276.643 363.97C276.643 356.226 270.085 349.948 261.996 349.948C253.906 349.948 247.349 356.226 247.349 363.97C247.349 371.715 253.906 377.993 261.996 377.993Z" fill="#DC2F02" fill-opacity="0.5"/>
<path d="M394.326 677.782C402.415 677.782 408.973 671.504 408.973 663.759C408.973 656.015 402.415 649.737 394.326 649.737C386.236 649.737 379.678 656.015 379.678 663.759C379.678 671.504 386.236 677.782 394.326 677.782Z" fill="#DC2F02" fill-opacity="0.5"/>
<path d="M955.464 376.059C963.554 376.059 970.112 369.78 970.112 362.036C970.112 354.292 963.554 348.014 955.464 348.014C947.375 348.014 940.817 354.292 940.817 362.036C940.817 369.78 947.375 376.059 955.464 376.059Z" fill="#DC2F02" fill-opacity="0.5"/>
<path d="M1213.05 726.135C1221.14 726.135 1227.7 719.857 1227.7 712.112C1227.7 704.368 1221.14 698.09 1213.05 698.09C1204.96 698.09 1198.41 704.368 1198.41 712.112C1198.41 719.857 1204.96 726.135 1213.05 726.135Z" fill="#DC2F02" fill-opacity="0.5"/>
<path d="M734.746 577.207C742.836 577.207 749.394 570.929 749.394 563.185C749.394 555.441 742.836 549.162 734.746 549.162C726.657 549.162 720.099 555.441 720.099 563.185C720.099 570.929 726.657 577.207 734.746 577.207Z" fill="#DC2F02" fill-opacity="0.5"/>
</svg>
