<svg width="1440" height="1026" viewBox="0 0 1440 1026" fill="none" xmlns="http://www.w3.org/2000/svg">
<path d="M360.561 147.564C360.079 142.493 359.105 137.528 357.663 132.792C357.479 131.896 357.157 131.061 356.717 130.341C356.278 129.62 355.73 129.029 355.11 128.605C354.28 128.318 353.411 128.305 352.577 128.567L339.57 131.217C338.482 131.283 337.439 131.823 336.603 132.752C334.909 135.124 336.577 138.944 336.525 142.216C336.467 145.896 334.011 148.883 331.348 149.871C328.63 150.602 325.826 150.556 323.122 149.735L304.936 145.972C310.292 143.696 315.059 139.46 318.694 133.748C321.087 129.973 322.361 122.925 318.902 121.138C317.874 120.762 316.802 120.648 315.743 120.8C307.503 120.885 301.019 111.725 293.305 107.868C288.368 105.558 283.009 105.386 277.994 107.377C272.979 109.367 268.566 113.418 265.384 118.95L275.073 119.572C275.984 119.505 276.888 119.826 277.653 120.488C279.776 122.811 277.137 127.272 277.436 130.909C277.824 135.634 282.537 136.643 286.089 137.121C289.641 137.599 294.147 141.441 292.439 145.615C274.585 153.803 256.417 129.61 237.667 132.588C232.922 133.342 228.441 135.824 223.808 137.385C195.505 146.919 166.245 121.48 137.332 126.868C130.904 128.327 124.587 130.545 118.455 133.496C114.52 135.217 110.415 137.076 107.556 141.066C104.697 145.055 103.609 151.878 106.317 156.05C98.8517 156.869 91.3361 155.917 84.1199 153.241C86.0713 154.685 87.6947 156.802 88.8197 159.37C89.9446 161.937 90.5297 164.861 90.5135 167.833C78.8566 170.364 67.5084 174.971 56.7741 181.531C58.7775 185.967 61.1175 190.117 63.7573 193.917L49 206.54C53.9857 208.212 56.5635 217.264 53.6641 222.918C58.8337 219.855 62.0376 211.934 67.5657 210.328C71.1873 209.276 74.8724 211.248 78.308 213.101C81.7437 214.955 85.5198 216.751 89.0765 215.361C92.6331 213.97 95.2564 207.83 92.9964 203.918C108.198 198.012 123.909 194.744 139.74 194.194C140.961 193.99 142.2 194.303 143.28 195.089C145.341 196.992 144.798 201.104 144.687 204.44C144.576 207.776 146.529 212.161 148.769 210.657C146.134 213.699 148.386 219.425 150.914 222.624C153.442 225.823 156.488 230.237 154.941 234.398C154.537 235.484 153.852 236.353 153.463 237.448C152.316 240.683 154.138 244.454 156.286 246.602C158.434 248.75 161.065 250.251 162.558 253.226C164.05 256.2 163.372 261.407 160.704 261.822L153.119 249C150.528 252.578 148.751 257.06 147.996 261.928C156.039 270.682 157.248 288.5 150.515 299.032C147.074 304.415 142.181 307.685 137.91 311.883C133.639 316.082 129.687 322.06 129.698 329.128C129.717 341.339 128.967 352.684 132.404 364.006C138.742 384.881 146.058 405.206 154.311 424.859C156.478 430.02 159.279 435.677 163.67 436.565C158.121 418.581 153.126 400.316 148.685 381.772C151.578 381.787 154.921 382.093 156.616 385.213C158.02 387.796 157.719 391.309 158.155 394.445C158.71 397.483 159.635 400.38 160.894 403.019L187.39 465.86C189.587 471.069 192.106 476.661 196.304 478.771C198.988 480.119 202.093 479.865 204.564 481.807C206.5 483.329 207.804 486.031 209.778 487.465C215.36 491.519 223.121 483.744 228.337 488.584C229.829 489.968 230.778 492.167 232.152 493.751C236.969 499.306 244.872 495.59 250.433 499.734C254.017 502.404 255.875 507.745 257.787 512.585C262.575 524.709 270.324 536.587 280.586 537.552C283.81 537.855 287.103 537.041 290.254 537.996C293.405 538.951 296.507 542.612 296.001 546.862C295.134 554.148 297.837 562.126 297.111 569.439C295.789 582.76 281.597 588.614 280.378 601.952C280.112 604.873 280.529 607.887 280.007 610.746C279.367 614.249 277.391 617.102 276.688 620.585C275.358 627.184 278.909 633.752 282.81 638.192C286.711 642.632 291.365 646.46 293.497 652.675C295.752 659.245 294.644 666.905 295.378 674.061C296.978 689.684 307.113 701.265 317.543 708.733C320.721 711.008 324.133 713.211 326.19 717.158C328.874 722.31 328.607 729.102 329.503 735.257C331.699 750.333 341.23 762.755 341.501 778.107C341.693 789.019 337.138 798.918 334.417 809.214C331.865 819.078 330.942 829.559 331.71 839.942C332.478 850.325 334.918 860.365 338.866 869.377C340.901 873.954 343.336 878.269 344.776 883.231C347.346 892.085 346.512 902.15 348.882 911.103C352.014 922.939 360.622 932.715 359.799 945.217C363.707 956.022 372.336 961.331 381.013 964.547L396.565 970.311C399.543 971.415 402.655 972.527 405.687 971.728C408.719 970.929 411.613 967.577 411.535 963.463C403.908 961.173 396.037 958.738 389.75 952.55C383.464 946.362 379.157 935.344 381.542 925.431C382.649 920.834 385.002 915.526 382.764 911.728C381.484 909.553 379.141 908.985 377.697 907.001C375.443 903.906 376.217 898.708 377.837 894.976C379.457 891.244 381.799 887.909 382.453 883.687C382.782 881.325 382.562 878.886 381.821 876.696C381.08 874.505 379.853 872.669 378.306 871.433C381.19 869.984 383.812 867.743 386.004 864.857C388.028 861.779 388.963 857.034 387.371 853.535C392.099 854.334 397.682 854.725 400.787 849.908C403.265 846.062 403.095 840.312 402.116 835.415C401.136 830.518 399.481 825.761 399.429 820.693C410.338 821.382 421.27 820.888 432.119 819.217C430.55 812.183 426.985 806.239 422.18 802.645C427.093 801.538 431.569 793.706 433.122 787.402C434.674 781.097 434.278 774.23 433.319 767.719C432.95 766.043 432.899 764.271 433.171 762.562C433.725 760.215 435.457 758.782 437.059 757.557L461.447 738.908C462.902 737.938 464.222 736.641 465.347 735.075C467.902 731.079 467.524 725.047 466.215 720.096C464.907 715.146 462.811 710.491 462.307 705.286C460.8 689.719 473.316 678.55 477.539 663.897C479.197 658.146 479.535 651.896 479.856 645.751C480.2 639.151 480.226 631.485 476.42 627.233C472.772 623.156 467.071 624.065 463.254 620.273C459.754 616.797 458.546 610.044 454.723 607.236C451.25 604.686 446.897 606.308 443.035 605.108C436.235 602.997 431.956 592.562 425.012 591.596C421.093 591.051 416.659 593.601 413.448 590.563C410.618 587.886 410.504 582.505 409.966 577.939C409.022 570.843 406.467 564.303 402.646 559.199C398.825 554.095 393.921 550.673 388.595 549.393C384.555 548.531 380.158 548.858 376.721 545.902C373.241 542.909 371.645 537.306 368.912 533.16C364.506 526.48 357.567 524.106 351.067 522.072L324.628 513.796C319.934 512.327 313.885 511.548 311.366 517.022C310.62 519.106 310.092 521.317 309.797 523.591C308.853 527.706 306.954 531.317 304.372 533.905C301.79 536.492 298.659 537.923 295.428 537.992C293.212 532.959 289.622 529.261 285.407 527.669C282.726 526.674 279.857 526.563 277.3 525.1C275.907 524.195 274.668 522.921 273.658 521.356C272.648 519.791 271.889 517.969 271.426 516C270.963 514.031 270.807 511.956 270.968 509.904C271.128 507.852 271.601 505.865 272.358 504.065C273.883 500.452 274.471 496.27 274.033 492.167C273.596 488.064 272.156 484.266 269.936 481.361C265.439 475.987 258.935 474.688 252.907 475.226C251.327 470.638 253.968 465.463 256.813 462.129C259.658 458.795 263.113 455.518 263.732 450.54C264.707 442.709 257.202 436.761 251.505 439.096C245.807 441.431 242.17 448.8 239.766 456.063C238.387 460.231 237.214 464.62 235.038 468.134C232.863 471.648 229.359 474.164 226.045 473.036C221.353 471.44 219.541 464.018 218.503 457.72C217.11 449.271 215.708 440.704 216 432.063C216.292 423.421 218.48 414.547 223.266 408.697C231.065 399.164 243.03 400.099 253.555 401.619C251.069 397.889 251.683 391.602 254.344 388.091C255.748 386.429 257.436 385.249 259.261 384.652C261.085 384.055 262.992 384.06 264.815 384.666C267.986 385.545 270.844 387.819 272.926 391.123C275.918 395.978 276.768 402.534 279.029 408.046C281.29 413.557 286.373 418.257 290.534 415.301C294.128 412.747 294.699 406.111 293.804 400.82C292.91 395.528 291.01 390.382 291.334 384.976C291.952 374.659 299.985 368.449 307.073 364.2C314.161 359.951 322.277 354.237 323.4 343.995C323.438 341.99 323.722 340.007 324.241 338.124C325.027 336.46 326.119 335.092 327.415 334.15C348.101 315.948 369.132 297.523 392.776 287.577C394.006 287.06 394.15 287.635 395.404 287.229C397.158 285.879 395.996 282.144 394.314 280.64C392.632 279.135 390.383 277.981 389.956 275.344C389.643 273.405 390.501 271.501 390.724 269.54C391.271 264.721 386.942 260.272 383.579 262.198C381.68 258.849 385.438 254.958 388.477 253.844C397.602 250.501 406.968 248.463 416.418 247.767C417.508 247.536 418.626 247.789 419.597 248.487C421.185 249.951 420.982 253.308 419.857 255.397C418.732 257.487 416.982 258.799 415.581 260.567C414.049 262.553 412.957 265.061 412.423 267.818C411.889 270.574 411.934 273.473 412.553 276.197C417.486 279.539 422.849 282.978 428.313 281.801C433.777 280.624 438.626 272.45 436.058 265.922C433.667 259.843 426.483 258.472 425.248 251.81C423.801 244.009 432.095 237.072 430.227 229.432C429.408 226.085 426.903 224.116 424.981 221.7C422.711 218.737 421.167 214.93 420.552 210.778C419.936 206.626 420.278 202.324 421.533 198.435C418.402 199.168 415.185 198.892 412.151 197.627C409.117 196.363 406.355 194.149 404.097 191.17C399.927 185.567 396.6 176.727 390.677 176.977C385.243 177.207 380.562 185.649 375.48 183.074C374.23 182.44 372.912 181.151 371.701 181.906C371.304 182.249 370.971 182.708 370.726 183.248C370.482 183.788 370.333 184.394 370.291 185.022C369 193.242 371.221 202.609 367.856 209.712C364.194 217.442 355.725 218.514 351.286 225.484C348.876 229.268 347.942 234.366 345.727 238.356C343.512 242.345 338.811 244.881 336.153 241.405C337.459 237.829 337.816 233.769 337.165 229.888C336.514 226.007 334.893 222.535 332.568 220.04C330.1 217.896 327.44 216.173 324.65 214.912C321.532 213.155 318.566 210.954 315.804 208.347C314.42 207.236 313.295 205.634 312.556 203.721C311.971 201.325 312.05 198.73 312.778 196.405C314.126 191.259 316.504 186.702 319.655 183.225C322.806 179.747 326.611 177.482 330.658 176.673C334.197 176.032 338.316 176.258 340.659 172.667C341.898 170.768 342.548 167.896 344.347 167.124C345.498 166.816 346.692 167.012 347.752 167.682L360.962 173.873C362.436 174.759 364.059 175.116 365.668 174.909C366.466 174.766 367.194 174.227 367.706 173.399C368.218 172.571 368.475 171.515 368.427 170.445C368.005 167.524 364.629 166.123 364.937 163.177C365.109 162.222 365.494 161.359 366.042 160.702C370.81 153.946 376.64 148.677 383.116 145.272C389.591 141.867 396.552 140.411 403.5 141.007C405.168 144.653 402.531 148.971 400.337 152.083C398.142 155.196 396.379 160.757 399.033 163.153C400.12 163.892 401.33 164.255 402.55 164.208C405.802 164.794 408.963 166.07 411.912 167.988C416.477 170.633 420.954 173.527 425.343 176.67C424.956 172.817 424.586 168.757 425.683 165.154C426.78 161.551 429.898 158.724 432.621 160.128C435.245 161.48 436.591 166.107 439.388 166.531C443.118 167.096 444.589 159.76 443.031 155.212C441.473 150.665 438.389 146.857 438.131 141.871C437.958 138.506 438.919 134.334 436.901 132.297C436.183 131.686 435.367 131.305 434.52 131.185L384.126 118.838C381.133 118.105 376.81 118.667 376.677 122.715C376.603 124.974 378.119 127.209 377.447 129.286C376.731 131.503 374.377 131.3 372.663 132.084C370.003 133.301 368.668 137.507 368.923 141.236C369.391 144.942 370.469 148.464 372.08 151.549C368.802 149.724 363.839 149.389 360.561 147.564Z" fill="#3F3D56" fill-opacity="0.5"/>
<path d="M320.396 90.1585C317.326 88.6841 314.018 88.6154 310.92 89.9618C307.822 91.3081 305.084 94.0043 303.078 97.6849C302.277 99.2166 301.603 101.328 302.274 102.987C303.237 105.365 305.688 104.425 307.496 103.575C310.152 102.197 313.044 102.097 315.743 103.289C317.44 104.135 318.959 105.629 320.663 106.443C321.493 106.947 322.402 107.113 323.292 106.924C324.182 106.736 325.019 106.199 325.715 105.372C326.885 103.64 326.959 100.948 326.961 98.5233C327.042 97.7119 326.997 96.8844 326.83 96.1012C326.662 95.3181 326.377 94.599 325.993 93.9965C325.311 93.423 324.544 93.0939 323.757 93.0365C321.993 92.5627 320.399 91.2106 319.248 89.2134" fill="#3F3D56" fill-opacity="0.5"/>
<path d="M339.093 84.0076C338.428 83.9596 337.765 84.1394 337.167 84.5298C336.57 84.9202 336.058 85.5081 335.681 86.237C335.304 86.9658 335.075 87.8111 335.016 88.6915C334.956 89.5719 335.068 90.4579 335.341 91.2642C337.384 92.0035 339.517 92.1881 341.615 91.8071C342.661 91.5915 343.636 90.9698 344.416 90.0202C345.196 89.0707 345.748 87.8358 346 86.4712C343.531 87.0676 340.982 86.4217 338.852 84.6594" fill="#3F3D56" fill-opacity="0.5"/>
<path d="M399.251 72.4056C393.29 74.1069 387.499 76.7475 382 80.2724C384.593 81.6102 386.796 84.0306 388.287 87.177C389.777 90.3234 390.475 94.0293 390.278 97.7485C390.045 99.1763 390.072 100.658 390.357 102.069C390.99 104.131 392.826 104.905 394.44 105.434C397.34 106.619 400.368 107.138 403.396 106.969C404.911 106.862 406.383 106.251 407.677 105.189C408.971 104.127 410.048 102.648 410.81 100.887C411.249 99.2156 411.764 97.5818 412.352 95.9948C416.22 88.085 427.713 97.6492 431.867 90.0042C433.33 87.3112 433.196 83.2575 435.104 81.1235C436.091 80.1938 437.234 79.608 438.431 79.4188C446.785 77.1909 455.222 75.5776 463.707 74.5863C467.727 74.1167 472.967 72.1788 473 66.7619C457.858 62.7697 442.158 65.6051 428.34 74.8274C423.361 78.1748 416.777 85.2163 411.981 80.7784C410.186 79.1168 410.275 74.6424 407.804 72.7739C405.277 70.8637 401.933 71.6406 399.251 72.4056Z" fill="#3F3D56" fill-opacity="0.5"/>
<path d="M449.494 84.6553L456.556 86.4713C455.256 86.3943 453.959 86.6891 452.751 87.3362C451.543 87.9833 450.452 88.9677 449.55 90.2238C448.649 91.4799 447.958 92.9788 447.524 94.6204C447.09 96.2621 446.923 98.0088 447.033 99.744C453.646 102.701 460.856 99.8235 467.822 100.217C474.788 100.61 482.893 107.269 481.703 116.464C481.344 119.244 480.144 122.023 480.768 124.718C481.205 126.607 482.45 127.947 483.153 129.687C484.617 133.312 483.447 137.898 481.598 141.193C479.749 144.489 477.264 147.118 475.642 150.621C471.606 159.331 473.899 170.592 476.303 180.324C476.998 184.001 478.282 187.432 480.065 190.379C483.627 195.448 489.431 195.889 494.63 195.99C498.413 196.064 502.748 195.814 505.14 191.891C508.264 186.768 506.08 178.776 508.136 172.765C510.004 167.305 514.763 164.962 519.075 163.301C526.973 160.258 535.023 157.67 542.491 153.073C551.763 147.365 560.429 138.469 570.621 137.734C573.48 137.528 576.411 137.98 579.165 136.931C581.919 135.883 584.535 132.696 584.327 128.873C584.149 125.607 582.084 123.209 580.471 120.747C578.858 118.285 577.591 114.5 579.074 111.895L605.788 105.217C603.894 98.3098 602.419 89.2132 606.77 84.7174C608.34 83.0953 610.442 82.447 611.779 80.4859C614.057 77.1436 612.912 71.386 610.282 68.5435C607.652 65.701 604.096 65.0412 600.727 64.6667C589.013 63.3646 577.233 64.225 565.496 65.086C542.555 66.7691 519.613 68.4522 496.671 70.1352C492.053 70.474 486.72 69.9564 482.485 72.0652C478.899 73.8505 476.349 77.1276 472.248 78.279C464.677 80.4046 456.345 78.9663 449.494 84.6553Z" fill="#3F3D56" fill-opacity="0.5"/>
<path d="M575.897 158.896C575.174 158.744 574.434 158.967 573.831 159.52C573.432 160.104 573.195 160.851 573.158 161.639C572.7 165.116 573.246 168.695 574.686 171.658C575.42 173.112 576.433 174.279 577.62 175.036C578.807 175.793 580.125 176.114 581.437 175.964C584.633 175.422 586.988 171.794 589.927 170.024C594.456 167.298 613.689 163.048 600.384 153.485C595.799 150.19 592.837 153.099 589.223 155.269C585.111 158.068 580.504 159.322 575.897 158.896V158.896Z" fill="#3F3D56" fill-opacity="0.5"/>
<path d="M692.059 78.9817C690.51 79.8149 689.214 81.3 688.373 83.2052C687.986 84.1726 687.896 85.2989 688.122 86.3511C688.348 87.4033 688.873 88.3009 689.587 88.8582C690.166 89.1344 690.779 89.2625 691.395 89.2356L697.694 89.4834C700.37 89.5886 703.713 90.3389 704.432 93.7338C704.966 96.2546 703.771 99.4938 705.213 101.295C705.832 101.926 706.576 102.308 707.356 102.395C709.431 103.097 711.598 103.189 713.703 102.665C718.287 101.047 715.879 97.3642 717.322 94.0852C719.531 89.068 719.149 92.1052 723.041 89.2297C725.915 87.1062 729.629 83.2541 727.23 77.8418C723.058 68.4299 698.215 74.9384 692.059 78.9817Z" fill="#3F3D56" fill-opacity="0.5"/>
<path d="M817.222 73.9197L813.555 74.5649C805.284 76.02 796.966 77.4884 789 80.7628C792.448 82.5601 796.066 83.7304 799.754 84.2415C801.784 84.3727 803.8 84.7506 805.777 85.3703C809.296 86.7512 812.841 90.317 816.24 88.4904C818.348 87.3578 819.036 84.4647 820.782 82.9314C821.987 81.8727 826.56 80.1591 827.071 79.0905C831.203 70.4515 820.399 73.3609 817.222 73.9197Z" fill="#3F3D56" fill-opacity="0.5"/>
<path d="M833.154 96.5797C828.173 100.268 823.551 104.749 819.393 109.924C817.641 112.105 815.851 114.818 816.01 117.995C816.221 122.217 819.618 124.667 822.561 126.317L834.482 133C835.928 130.301 834.604 126.575 833.11 123.923C831.615 121.271 829.839 118.202 830.499 115.01C831.253 111.368 834.607 110.127 837.419 109.499C842.001 108.477 854.362 108.559 852.877 98.7802C851.127 87.2581 837.753 93.1752 833.154 96.5797Z" fill="#3F3D56" fill-opacity="0.5"/>
<path d="M830.804 740.927C829.682 745.207 829.575 750.248 831.517 753.985C833.696 758.177 838.057 759.74 841.83 758.677C845.587 757.361 848.935 754.526 851.404 750.571C853.662 747.257 855.52 743.507 856.911 739.45C858.854 733.128 860.224 726.526 860.993 719.782L864.655 694.468C865.473 688.811 865.441 671.466 857.545 677.117C855.388 678.661 850.393 690.85 848.132 694.306C844.058 700.536 843.519 706.58 841.374 714.127C838.687 723.58 833.288 731.459 830.804 740.927Z" fill="#3F3D56" fill-opacity="0.5"/>
<path d="M1245.16 871.652C1242.61 870.339 1240.14 868.784 1237.75 867C1235.37 875.66 1234.1 884.786 1234 894L1251.45 880.97C1254.08 879.009 1257.05 876.286 1257 872.306C1257.02 871.815 1256.94 871.324 1256.77 870.886C1256.6 870.447 1256.35 870.077 1256.03 869.814C1255.64 869.609 1255.22 869.544 1254.81 869.625C1252.22 869.909 1249.86 871.59 1247.42 872.758C1244.98 873.926 1242.12 874.544 1239.88 872.81" fill="#3F3D56" fill-opacity="0.5"/>
<path d="M1338.05 878.509C1336.15 879.237 1334.29 880.173 1332.49 881.311C1328.52 884.153 1325.82 889.551 1322.24 893.294C1318.82 896.876 1314.7 898.843 1310.66 900.755C1309.47 902.233 1310.02 905.21 1311.31 906.508C1312.69 907.618 1314.29 908.121 1315.88 907.953C1320.08 908.083 1324.51 908.14 1328.19 905.288C1330.26 903.398 1332.2 901.233 1333.98 898.824C1338.28 893.778 1343.45 890.448 1348.56 887.231C1350.42 886.243 1352.14 884.796 1353.64 882.959C1356.86 878.508 1357.08 871.642 1352.45 870.127C1348.71 868.903 1341.61 876.888 1338.05 878.509Z" fill="#3F3D56" fill-opacity="0.5"/>
<path d="M1378.88 843.848C1379.1 840.931 1378.8 837.989 1378 835.243C1377.21 832.498 1375.94 830.021 1374.3 828C1374.25 833.837 1374.11 840.055 1371.57 844.882C1369.76 848.321 1366.91 850.644 1364.93 853.92C1362.94 857.196 1362.06 862.389 1364.39 865.263C1365.88 866.725 1367.69 867.531 1369.56 867.563C1374.2 868.267 1379.56 868.66 1382.81 864.337C1384.59 861.977 1385.45 858.482 1387.62 856.748C1388.42 856.311 1389.14 855.646 1389.72 854.802C1390.62 852.968 1389.2 850.551 1387.6 849.89C1386 849.23 1384.24 849.54 1382.63 848.913C1381.03 848.285 1379.55 845.954 1380.38 844.066" fill="#3F3D56" fill-opacity="0.5"/>
<path d="M1306.36 627.42C1303.98 628.194 1301.5 628.389 1299.07 627.994C1295.01 627.001 1291.86 622.929 1288.59 619.59C1280.81 611.695 1271.36 607.292 1261.59 607.011C1252.7 606.787 1243.73 609.999 1235 607.758C1235.57 611.988 1238.28 615.161 1241.18 617.047C1244.08 618.932 1247.27 619.881 1250.18 621.729C1254.85 624.717 1258.54 629.845 1260.6 636.173C1261.53 639.09 1262.12 642.265 1263.54 644.813C1266.45 650.019 1271.95 651.163 1276.8 650.737C1283.13 650.182 1289.74 647.754 1295.63 650.899C1300.13 653.304 1303.36 658.561 1307.12 662.649C1310.88 666.737 1316.18 669.771 1320.5 666.821C1316.01 664.885 1312.11 661.087 1309.35 655.982C1306.6 650.877 1305.14 644.733 1305.2 638.446C1309.43 638.966 1321.63 638.764 1320.97 629.167C1320.42 621.034 1310 626.542 1306.36 627.42Z" fill="#3F3D56" fill-opacity="0.5"/>
<path d="M1251.63 693.653C1252.38 688.188 1256.5 683.362 1255.21 678.073C1254.33 674.415 1251.12 672.609 1248.22 672.519C1245.32 672.429 1242.47 673.573 1239.57 673.681C1237.68 673.548 1235.79 673.584 1233.9 673.787C1228.14 675.04 1224.59 683.03 1219.16 685.871C1215.86 687.598 1212.16 687.268 1208.72 688.462C1200.93 691.173 1196 700.917 1190.56 708.774C1181.76 721.411 1170.29 730.26 1157.65 734.175C1153.22 735.532 1148.45 736.401 1144.93 740.209C1140.27 745.252 1139.12 753.897 1138.09 761.747C1135.22 783.429 1130.84 804.711 1125 825.321L1143.5 828.448C1147.02 829.042 1150.66 829.624 1154.05 828.245C1156.51 827.015 1158.85 825.371 1160.99 823.352C1169.23 816.581 1178.45 812.175 1188.06 810.42C1192.91 809.539 1197.99 809.378 1202.53 811.762C1207.08 814.145 1210.98 819.55 1211.36 826.003C1213.33 825.193 1215.42 825.106 1217.42 825.75C1219.42 826.394 1221.25 827.745 1222.72 829.659C1225.62 833.566 1227.51 838.578 1228.14 843.988C1228.63 847.338 1229.12 851.352 1231.47 852.758C1233.38 853.904 1235.58 852.669 1237.68 852.447C1244.79 851.694 1250.69 862.671 1257.68 860.781C1265.18 858.754 1267.02 843.891 1274.34 840.914C1278.54 839.205 1284.43 841.284 1286.44 836.111C1288.22 831.553 1284.68 826.292 1285.04 821.187C1285.49 814.902 1291.09 812.234 1295.41 809.552C1310.3 800.306 1317.37 773.785 1310.15 754.225C1305.88 742.636 1297.47 733.513 1295.91 720.781C1294.72 710.986 1297.64 699.563 1292.92 691.853C1290.52 687.931 1286.45 685.766 1285.02 681.086C1284.12 678.14 1284.49 674.797 1284 671.685C1283.52 668.573 1281.47 665.318 1279.15 666.125C1272.41 668.466 1270.25 696.023 1266.65 702.719C1261.16 712.896 1249.9 706.192 1251.63 693.653Z" fill="#3F3D56" fill-opacity="0.5"/>
<path d="M1127.5 637.114C1125.22 636.239 1122.72 635.377 1120.53 636.627C1118.35 637.878 1117.07 642.268 1118.82 644.446C1132.56 643.715 1146.39 642.989 1160.01 645.538C1175.7 648.476 1191.24 655.753 1207 653.612C1198 649.981 1188.84 647.079 1179.59 644.919L1164.15 640.891C1160.01 639.706 1155.83 638.822 1151.62 638.245C1142.82 637.251 1136.16 640.431 1127.5 637.114Z" fill="#3F3D56" fill-opacity="0.5"/>
<path d="M1140.64 573.703C1139.45 573.573 1137.99 573.46 1137.38 574.805C1136.79 576.089 1137.46 577.787 1137.15 579.227C1136.72 581.195 1134.77 581.698 1133.24 581.43C1131.7 581.162 1130.04 580.52 1128.68 581.499C1127.99 582.122 1127.48 583.025 1127.21 584.071C1126.94 585.117 1126.93 586.25 1127.19 587.3C1127.75 589.386 1128.65 591.282 1129.82 592.852C1131.83 596.205 1134.12 599.245 1136.65 601.916C1141.54 606.695 1148.17 608.997 1151.26 615.934C1151.69 617.279 1152.36 618.469 1153.21 619.407C1154.69 620.647 1156.61 619.704 1158.21 618.741L1163.79 615.366C1164.8 614.886 1165.69 614.078 1166.4 613.017C1167.68 610.727 1166.89 607.471 1165.82 605.004C1164.75 602.537 1163.38 599.984 1163.61 597.155C1164.02 592.112 1168.92 590.183 1170.94 585.868C1172.97 581.519 1171.64 575.915 1171.88 570.812C1172.15 564.843 1174.99 557.08 1170.43 552.621C1166.55 548.831 1162.85 552.333 1160.06 556.517C1154.2 565.34 1151.42 574.895 1140.64 573.703Z" fill="#3F3D56" fill-opacity="0.5"/>
<path d="M1173.97 486.83C1175.76 491.507 1179.5 494.298 1181.46 498.853C1183.58 503.789 1183.33 510.168 1185.63 514.953C1187.99 519.863 1192.74 522.469 1194.06 528.054C1195.51 534.15 1192.23 541.56 1194.84 546.887C1195.33 547.757 1195.94 548.481 1196.65 549.011C1197.35 549.541 1198.13 549.867 1198.93 549.967C1199.73 550.067 1200.53 549.94 1201.3 549.593C1202.06 549.246 1202.76 548.687 1203.35 547.952C1204.46 546.319 1205.05 544.164 1205 541.947C1204.95 539.73 1204.27 537.626 1203.1 536.084C1201.55 534.163 1199.33 533.333 1198.04 531.089C1197.37 529.794 1196.92 528.308 1196.73 526.743C1196.02 522.229 1196.14 517.549 1197.06 513.108C1197.4 511.98 1197.49 510.737 1197.31 509.541C1196.73 507.239 1194.44 507.076 1192.83 506.008C1189.19 503.582 1189.27 496.57 1189.91 491.11C1189.49 494.745 1179.98 488.562 1178.99 486.503C1177.01 482.412 1178.08 474.521 1177.69 470C1173.42 472.802 1171.78 481.111 1173.97 486.83Z" fill="#3F3D56" fill-opacity="0.5"/>
<path d="M1074.92 558.402C1073.11 555.686 1070.38 552.844 1067.95 554.482C1066.1 555.732 1065.59 559.166 1066.32 561.768C1067.2 564.297 1068.56 566.472 1070.27 568.078C1075.33 573.669 1080.78 578.715 1085.19 585.213C1093.09 596.843 1097.27 612.536 1105.86 623.25C1107.59 625.734 1109.88 627.392 1112.37 627.97C1114.88 628.282 1117.69 626.136 1117.97 622.79C1118.21 620.034 1116.78 617.568 1115.38 615.525C1112.04 610.662 1108.39 606.186 1105.24 601.105C1103.78 599.153 1102.87 596.594 1102.64 593.852C1102.63 591.116 1104.49 588.252 1106.47 588.93C1104.06 588.106 1102.28 582.734 1098.75 581.725C1095.79 580.881 1095.08 583.329 1091.57 581.311C1084.87 577.461 1079.61 565.438 1074.92 558.402Z" fill="#3F3D56" fill-opacity="0.5"/>
<path d="M1232.31 297.136C1230.4 296.376 1228.52 295.479 1226.68 294.448C1221.73 292.463 1215.18 297.323 1215.84 304.171C1216.28 308.721 1219.45 311.788 1221.2 315.735C1223.8 321.588 1223.1 329.011 1221.74 335.565C1221.4 337.594 1220.77 339.513 1219.87 341.207C1218.61 342.996 1217.1 344.443 1215.43 345.47C1208.75 350.477 1202.85 357.168 1198.07 365.172C1197.55 365.911 1197.19 366.822 1197.02 367.812C1196.79 370.124 1198.53 371.808 1199.51 373.736C1201.69 378.02 1200.11 383.784 1200.33 388.959C1200.3 389.691 1200.4 390.422 1200.64 391.083C1200.88 391.744 1201.24 392.313 1201.69 392.735C1203.01 393.629 1204.57 392.111 1205.28 390.384C1207.65 384.651 1205.86 375.449 1210.31 372.685C1211.15 372.162 1212.17 371.942 1212.73 370.955C1213.62 369.39 1212.76 367.074 1213.21 365.203C1213.89 362.395 1216.76 362.269 1218.97 362.394C1222.77 362.606 1226.57 361.93 1230.2 360.397C1231.62 359.945 1232.91 358.945 1233.91 357.522C1235.24 355.307 1235.12 352.158 1234.86 349.343C1233.53 335.306 1230.2 321.739 1225.05 309.374C1228.95 310.04 1233.2 310.617 1236.57 307.899C1238.46 306.377 1240.72 301.827 1239.78 298.73C1238.3 293.832 1235.63 297.954 1232.31 297.136Z" fill="#3F3D56" fill-opacity="0.5"/>
<path d="M730.188 373.775C730.654 377.13 731.113 380.663 730.293 383.894C729.473 387.125 726.893 389.825 724.458 388.835C722.567 388.067 721.476 385.518 720.133 383.574C712.669 372.768 695.827 379.025 691.216 365.655C689.334 360.199 690.613 353.662 689.329 347.902C688.52 344.573 686.908 341.699 684.748 339.731C682.588 337.763 680.002 336.813 677.396 337.03C675.019 337.491 672.705 338.417 670.529 339.779C655.95 347.609 640.644 352.743 625.032 355.039C622.065 355.282 619.13 355.998 616.29 357.172C609.88 360.289 605.5 368.258 602.383 376.391C599.266 384.523 596.964 393.327 592.785 400.552C588.393 408.146 582.239 413.463 576.498 419.214C574.287 421.126 572.445 423.714 571.125 426.766C569.881 430.192 569.951 434.178 570.047 437.987L571.221 484.251C571.372 490.202 571.561 496.365 573.547 501.69C576.027 508.34 580.927 512.695 584.325 518.57C587.794 524.607 589.601 532.065 589.44 539.683C589.368 542.746 589.141 546.368 590.919 548.292C592.001 549.232 593.268 549.721 594.557 549.694L641.224 554.816C649.433 555.717 658.531 557.199 663.891 565.586C666.42 569.544 668.452 575.236 672.326 575.661C673.988 575.843 675.605 574.928 677.268 574.752C681.461 574.307 685.145 578.575 687.47 583.276C690.989 590.442 692.586 598.999 692 607.543C691.619 612.906 690.379 618.12 690.111 623.495C689.094 643.949 702.024 661.719 702.275 682.215C702.422 694.272 698.154 705.536 693.993 716.225C700.709 729.868 695.21 748.034 697.883 763.983C700.42 779.115 709.828 790.96 712.172 806.147C713.245 813.1 713.308 821.656 717.879 825.236C719.885 826.548 722.109 827.145 724.337 826.97C737.775 827.184 751.06 823.128 763.105 815.135C768.758 811.373 774.617 805.757 775.604 797.398C776.4 790.658 773.851 783.118 776.445 777.246C779.503 770.326 787.335 770.875 791.834 765.554C799.132 756.923 793.441 740.461 796.398 728.029C799.056 716.854 808.205 710.917 812.741 700.887C814.526 696.574 815.806 691.919 816.538 687.084C818.616 675.53 819.909 663.748 820.403 651.881C820.523 644.67 820.92 637.473 821.59 630.318C826.48 589.579 856.513 562.3 866.264 523.164C867.195 519.426 867.632 514.448 865.153 512.333C863.682 511.392 862.015 511.158 860.431 511.67L838.918 515.307C836.246 515.759 833.414 516.181 830.96 514.693C828.506 513.205 826.747 509.042 828.049 505.88C831.703 497.005 824.187 485.789 820.848 476.694C811.855 452.203 801.147 428.914 788.866 407.141C788.08 406.021 787.588 404.588 787.464 403.059L793.57 403.331C791.509 393.414 788.107 382.561 780.923 378.934C776.874 376.889 772.39 377.596 768.071 377.913C755.698 378.819 742.433 376.314 730.188 373.775Z" fill="#3F3D56" fill-opacity="0.5"/>
<path d="M768.135 151.856C771.386 156.445 775.03 161.31 779.735 162.11C788.045 163.523 794.02 152.103 797.824 142.184C797.965 144.713 798.843 147.069 800.27 148.751C801.698 150.433 803.563 151.308 805.469 151.191C807.521 150.733 809.478 149.715 811.22 148.204C827.685 136.247 846.126 129.911 864.889 129.767C864.709 127.878 865.061 125.968 865.879 124.404C866.696 122.84 867.92 121.734 869.315 121.299C873.13 120.294 876.566 124.677 878.406 129.23C880.247 133.783 881.394 139.06 884.318 142.468C887.242 145.876 892.902 145.728 894.057 140.793C895.166 136.055 891.451 132.014 888.366 129.221C885.28 126.428 882.027 121.258 884.105 117.136C899.87 112.499 915.733 107.844 931.864 106.922C934.61 107.049 937.347 106.423 939.903 105.082C942.363 103.477 944.319 99.8358 943.657 96.3019C940.137 97.4016 936.45 97.0831 933.066 95.3872C929.683 93.6912 926.756 90.6945 924.659 86.7793C947.042 84.3247 970.85 82.2325 990.686 96.2288C993.067 103.02 980.935 108.67 984.181 114.795C985.216 116.748 987.29 116.977 989.088 117.021C1002.87 117.362 1016.74 117.695 1030.37 114.929C1035.35 113.919 1040.38 112.492 1045.38 113.312C1053.71 114.677 1060.83 122.062 1069.03 124.47C1072.36 125.45 1076.1 125.483 1078.91 122.905C1081.72 120.327 1082.93 114.458 1080.63 111.106C1088.34 101.058 1101.15 103.549 1111.33 108.359C1121.5 113.17 1131.15 120.928 1141.92 122C1149.64 122.769 1157.48 120.008 1165.11 121.763C1169.91 122.866 1174.37 125.702 1179.06 127.444C1187.93 130.739 1197.3 130.043 1206.51 130.202C1230 130.623 1253.23 136.757 1275.06 148.303C1277.9 149.531 1280.5 151.574 1282.68 154.286C1284.71 157.176 1285.75 161.667 1284.38 165.18L1261.83 160.801C1263.95 166.36 1269.45 167.307 1273.91 169.225C1278.38 171.143 1283.01 177.694 1280.32 182.809C1275.49 180.763 1271.1 187.19 1268.66 193.103C1266.22 199.016 1263.24 206.098 1258.17 206.458C1253.63 206.781 1248.14 201.644 1245.18 206.23C1249.27 213.083 1252.77 220.52 1255.62 228.403C1258.54 236.496 1260.62 246.694 1256.67 253.975C1256.05 255.275 1255.11 256.247 1254.01 256.723C1250.78 257.809 1248.68 252.563 1246.37 249.383C1243.45 245.377 1239.04 244.242 1235.09 242.363C1231.14 240.484 1226.98 236.787 1226.68 231.228C1226.48 227.77 1227.86 224.555 1228.87 221.358C1230.57 215.97 1231.31 210.134 1231.04 204.302C1230.82 199.61 1229.83 194.73 1227.3 191.452C1224.76 188.174 1220.38 187.134 1217.66 190.136C1216.39 191.537 1215.37 193.778 1213.72 193.862C1210.81 194.01 1208.57 187.258 1206.23 189.563C1206.5 192.019 1206.12 194.525 1205.14 196.643C1198.15 204.73 1187.4 201.309 1178.38 204.165C1174.09 205.797 1169.98 208.18 1166.17 211.252C1164.74 212.063 1163.53 213.418 1162.68 215.146C1161.55 218.053 1162.79 221.777 1164.78 223.711C1166.88 225.426 1169.25 226.499 1171.7 226.852C1182.7 229.619 1193.86 233.904 1202.54 243.29C1211.22 252.676 1216.91 268.193 1214.17 282.611L1192.48 255.074C1193.3 266.636 1193.77 278.23 1193.88 289.856C1194.02 292.126 1193.79 294.409 1193.19 296.546C1191.65 301.084 1187.46 302.611 1183.79 303.612C1182.76 303.87 1181.8 304.412 1180.94 305.203C1180.09 305.994 1179.37 307.015 1178.84 308.2C1178.31 309.385 1177.97 310.707 1177.84 312.079C1177.72 313.45 1177.82 314.841 1178.13 316.159C1179.43 321.81 1182.69 326.216 1185.66 330.605C1188.64 334.995 1191.57 339.985 1191.96 345.872C1192.35 351.76 1189.01 358.397 1184.57 357.988C1181.21 357.677 1178.71 353.676 1177.28 349.621C1175.85 345.566 1174.99 341.049 1172.84 337.604C1166.31 327.175 1151.66 331.643 1145.81 320.526C1144.32 322.772 1143.29 325.487 1142.81 328.413C1142.33 331.338 1142.42 334.378 1143.08 337.243C1145.8 334.981 1149.52 337.083 1151.56 340.37C1153.6 343.657 1154.57 347.871 1156.17 351.563C1158.34 356.545 1161.78 360.961 1162.09 366.7C1162.01 368.87 1162.03 371.045 1162.17 373.21C1162.71 376.687 1164.92 379.184 1166.45 382.091C1170.02 388.854 1169.84 398.144 1167.54 405.818C1165.24 413.491 1161.11 419.903 1157.02 426.119C1149.87 436.977 1142.58 447.771 1134.1 456.788C1131.68 459.361 1129.1 461.891 1127.6 465.488C1126.09 469.085 1126.01 474.134 1128.33 476.87C1126.67 476.981 1123.7 478.063 1122.05 478.173C1121.46 469.346 1121.34 460.476 1121.67 451.625C1115.13 447.456 1108.1 458.622 1108.94 468.19C1109.78 477.757 1114.99 485.435 1118.7 493.713C1121.41 499.766 1123.43 506.825 1122.52 513.766C1121.62 520.707 1116.95 527.11 1111.67 526.498C1103.27 525.524 1099.76 509.499 1091.44 507.665C1090.71 507.436 1089.94 507.538 1089.25 507.954C1088.02 508.854 1087.8 511.05 1087.73 512.919C1087.39 522.095 1087.1 531.635 1089.79 540.094C1093.74 552.47 1103.92 562.864 1101.79 576C1090.27 568.889 1084.29 551.735 1081.57 535.258C1078.85 518.78 1078.4 501.482 1073.53 485.905C1069.83 492.204 1062.06 486.997 1058.68 480.387C1055.47 474.122 1053.5 466.874 1050.39 460.523C1047.29 454.173 1042.52 448.487 1036.83 448.138C1030.86 447.772 1025.68 453.217 1021.13 458.361C1017.38 462.591 1013.54 466.988 1011.35 472.836C1008.16 481.345 1009 491.377 1008.84 500.878C1008.68 511.151 1007.04 521.989 1001.77 529.509C996.503 537.029 986.778 539.648 980.967 532.871C977.933 529.332 976.464 524.046 975.156 518.971C968.849 494.511 963.597 469.592 959.424 444.337C958.448 450.101 954.639 457.531 951 454.135C950.183 453.223 949.522 452.09 949.059 450.813C942.272 435.526 929.702 426.356 917.003 420.858C904.303 415.36 890.941 412.796 878.382 406.754C871.344 403.366 864.622 398.917 858.348 393.492C856.748 396.615 855.815 400.254 855.645 404.025C855.475 407.796 856.077 411.557 857.385 414.91C860.171 421.466 866.475 425.258 871.871 422.967C874.66 421.783 877.015 419.21 879.782 417.94C882.549 416.669 886.263 417.293 887.473 420.836C888.631 424.227 886.88 428.329 887.749 431.869C889.071 437.262 895.191 437.677 897.332 442.584C898.924 446.235 897.614 451.083 895.34 454.029C893.067 456.975 890.033 458.591 887.258 460.642C878.253 467.296 871.85 478.655 863.98 487.493C856.111 496.33 845.008 502.783 835.629 497.114C837.865 482.07 824.38 471.026 821.899 456.05C821.083 451.121 821.506 445.886 820.34 441.082C818.652 434.128 814.009 429.346 810.2 424.075C805.58 417.614 801.981 409.988 799.615 401.647C797.249 393.307 796.164 384.422 796.424 375.515C796.63 369.326 797.485 363.036 796.424 357.004C795.363 350.971 791.605 345.132 786.948 345.405C776.31 346.03 762.909 347.081 757.328 335.031C755.337 330.73 754.47 324.431 757.35 321.136C759.381 318.812 762.38 319.031 765.048 319.38L789.015 322.513C794.621 323.246 800.681 323.85 805.491 319.956C810.301 316.062 812.386 305.724 807.932 301.142C804.677 297.795 798.846 297.976 797.9 292.653C797.112 288.22 800.805 283.191 798.81 279.486C797.38 276.829 794.166 277.566 792.218 279.558C790.27 281.549 788.856 284.461 786.676 285.969C782.852 288.614 778.282 286.097 774.167 284.386C770.053 282.675 764.537 282.53 762.541 287.608C760.309 293.288 764.52 300.73 762.305 306.422C759.377 313.946 749.459 309.663 745.346 316.135C740.626 323.562 748.557 334.637 746.966 344.125C744.934 345.462 742.675 346.076 740.411 345.907C738.147 345.738 735.955 344.792 734.048 343.16C732.173 341.465 730.679 339.127 729.724 336.393C728.769 333.659 728.39 330.633 728.626 327.636C729.02 323.368 730.695 319.011 729.573 314.977C728.666 311.716 726.202 309.775 723.912 308.093L700.621 290.99C698.458 296.321 701.192 302.929 704.611 306.933C708.03 310.937 712.313 313.952 714.559 319.222C715.979 322.873 716.298 327.106 715.449 331.059C714.6 335.011 712.648 338.383 709.991 340.488C709.658 340.793 709.279 340.999 708.881 341.091C708.482 341.184 708.073 341.16 707.682 341.023C707.311 340.733 706.987 340.346 706.73 339.887C706.472 339.427 706.287 338.904 706.185 338.347C702.076 324.372 695.906 310.593 686.041 303.293C676.177 295.992 662.003 297.493 655.535 309.791C653.998 312.712 652.967 316.042 651.628 319.13C644.518 335.537 629.273 343.307 615.03 342.799C613.637 342.902 612.251 342.469 611.038 341.553C608.736 339.44 608.839 334.957 609.192 331.269L610.687 315.618C610.987 312.475 611.422 309.001 613.294 307.04C615.933 304.274 619.739 306.019 623.099 305.955C625.645 305.797 628.092 304.602 630.11 302.533C632.127 300.464 633.617 297.62 634.378 294.388C635.057 291.124 635.052 287.675 634.365 284.414C633.678 281.153 632.335 278.202 630.479 275.881C628.939 273.959 626.872 271.544 627.685 268.953C628.01 268.236 628.449 267.622 628.971 267.155C629.493 266.688 630.086 266.378 630.708 266.248C636.744 263.919 643.121 263.308 649.056 260.56C654.991 257.812 660.747 252.189 662.153 244.048C662.584 241.553 662.78 238.531 664.466 237.294C665.312 236.82 666.221 236.573 667.139 236.569C670.357 235.96 673.287 233.773 675.352 230.438C677.417 227.103 678.468 222.861 678.297 218.548C681.141 215.907 685.127 217.85 687.878 220.659C690.63 223.468 693.059 227.18 696.408 228.391C702.647 230.647 708.678 223.306 715.144 223.272C717.864 223.257 720.679 224.535 723.237 223.31C725.831 222.068 727.38 218.637 729.37 216.102C731.361 213.568 734.854 212.022 736.692 214.752L735.127 199.345C738.279 200.403 741.565 200.553 744.764 199.785C747.963 199.016 751.002 197.347 753.676 194.889L733.447 185.806C732.742 185.572 732.092 185.11 731.555 184.462C730.084 182.357 731.545 179.078 732.741 176.685C735.602 170.962 736.082 161.535 731.377 158.686C728.166 156.741 724.48 159.076 721.398 161.36L706.633 172.3C706.164 176.029 709.596 178.143 711.723 180.655C713.009 182.175 713.92 184.177 714.335 186.397C714.75 188.617 714.65 190.952 714.048 193.096C713.446 195.239 712.37 197.09 710.962 198.406C709.554 199.722 707.879 200.442 706.158 200.47C707.13 202.15 707.806 204.098 708.134 206.172C708.463 208.246 708.437 210.391 708.057 212.449L698.123 213.399C697.008 213.697 695.849 213.396 694.901 212.563C693.838 211.309 693.982 209.112 693.736 207.252C693.142 202.763 689.834 199.617 686.459 198.81C683.083 198.004 679.63 199.038 676.287 200.059C674.868 200.737 673.309 200.69 671.915 199.925C671.115 199.234 670.508 198.215 670.185 197.023C668.72 192.301 670.089 186.751 672.443 182.714C674.797 178.676 678.019 175.724 680.912 172.362C687.832 164.294 692.916 153.814 695.59 142.108C701.059 139.063 706.721 134.926 712.189 131.881C720.621 126.209 730.075 123.774 739.491 124.852L758.011 125.322C763.494 125.461 769.126 125.64 774.196 128.418C779.266 131.195 783.721 137.204 784.071 144.477C784.177 145.3 784.123 146.146 783.916 146.934C783.708 147.722 783.353 148.428 782.884 148.984C782.168 149.503 781.357 149.746 780.542 149.685C775.429 149.924 773.248 151.617 768.135 151.856Z" fill="#3F3D56" fill-opacity="0.5"/>
<path d="M621.052 229.011C621.757 228.116 622.264 226.977 622.518 225.721C622.772 224.464 622.762 223.138 622.491 221.888C620.776 221 618.911 220.772 617.105 221.23C615.299 221.688 613.624 222.813 612.268 224.478C611.2 225.928 610.279 227.562 609.53 229.336C607.16 234.524 605.063 240.722 606.437 246.521C606.549 247.154 606.754 247.75 607.04 248.275C607.326 248.799 607.687 249.242 608.102 249.577C608.718 249.909 609.381 250.048 610.043 249.985C612.654 249.981 615.262 249.765 617.854 249.34C619.446 249.079 621.294 248.476 621.91 246.489C622.718 243.877 620.761 240.922 621.332 238.199C621.707 236.982 622.276 235.889 622.998 234.997C623.357 234.548 623.632 233.992 623.803 233.375C623.974 232.758 624.035 232.097 623.981 231.442C623.751 230.165 622.293 229.44 621.768 230.55" fill="#3F3D56" fill-opacity="0.5"/>
<path d="M634.528 204.747C632.041 204.029 629.478 203.827 626.938 204.148C626.377 204.127 625.82 204.286 625.321 204.609C624.837 205.058 624.487 205.696 624.325 206.422C623.788 208.584 623.92 210.921 624.694 212.966C625.467 215.012 626.826 216.616 628.499 217.46C629.411 217.723 630.284 218.164 631.088 218.766C633.234 220.858 631.866 225.135 632.272 228.509C632.729 232.298 635.649 235.479 635.113 239.252C634.691 242.224 632.164 244.578 632.571 247.553C632.997 250.67 636.146 251.606 638.655 251.856C640.11 252.176 641.607 251.96 642.966 251.235C644.328 250.065 645.297 248.303 645.686 246.288C646.713 242.447 647.145 238.393 646.957 234.348C646.946 232.508 646.578 230.699 645.886 229.078C645.13 227.793 644.292 226.588 643.381 225.475C638.572 218.449 643.635 207.97 634.528 204.747Z" fill="#3F3D56" fill-opacity="0.5"/>
<path opacity="0.8" d="M1241 763C1241 763 888.027 493.306 736.067 544.406C736.067 544.406 414.02 590.538 376.696 692.028C376.696 692.028 274.323 266.194 237 252" stroke="#DC2F02" stroke-opacity="0.5" stroke-width="2" stroke-miterlimit="10"/>
<path opacity="0.8" d="M376.696 692.144C435.881 482.409 969.072 250 969.072 250C893.359 275.508 736.067 544.762 736.067 544.762C736.067 544.762 403.356 223.075 237 252.834C237 252.834 969.605 284.72 1241 763" stroke="#DC2F02" stroke-opacity="0.5" stroke-width="2" stroke-miterlimit="10"/>
<path d="M236.5 274C245.06 274 252 264.598 252 253C252 241.402 245.06 232 236.5 232C227.94 232 221 241.402 221 253C221 264.598 227.94 274 236.5 274Z" fill="#DC2F02" fill-opacity="0.5"/>
<path d="M376.5 712C385.06 712 392 703.046 392 692C392 680.954 385.06 672 376.5 672C367.94 672 361 680.954 361 692C361 703.046 367.94 712 376.5 712Z" fill="#DC2F02" fill-opacity="0.5"/>
<path d="M968.5 271C977.06 271 984 261.598 984 250C984 238.402 977.06 229 968.5 229C959.94 229 953 238.402 953 250C953 261.598 959.94 271 968.5 271Z" fill="#DC2F02" fill-opacity="0.5"/>
<path d="M1240.5 784C1249.06 784 1256 774.822 1256 763.5C1256 752.178 1249.06 743 1240.5 743C1231.94 743 1225 752.178 1225 763.5C1225 774.822 1231.94 784 1240.5 784Z" fill="#DC2F02" fill-opacity="0.5"/>
<path d="M735.5 566C744.06 566 751 556.598 751 545C751 533.402 744.06 524 735.5 524C726.94 524 720 533.402 720 545C720 556.598 726.94 566 735.5 566Z" fill="#DC2F02" fill-opacity="0.5"/>
</svg>
