<svg width="565" height="417" viewBox="0 0 565 417" fill="none" xmlns="http://www.w3.org/2000/svg">
<path d="M76.8391 281.509C109.592 281.509 136.144 234.806 136.144 177.193C136.144 119.581 109.592 72.8771 76.8391 72.8771C44.0861 72.8771 17.5345 119.581 17.5345 177.193C17.5345 234.806 44.0861 281.509 76.8391 281.509Z" fill="#6C63FF"/>
<path d="M76.2946 178.275C79.2528 132.867 85.2132 102.195 85.2731 101.891L83.9799 101.702C83.92 102.007 77.949 132.728 74.986 178.194C72.2516 220.157 71.5919 283.629 83.9796 347.704L85.2734 347.518C72.9069 283.552 73.565 220.177 76.2946 178.275Z" fill="#3F3D56"/>
<path d="M129.844 156.038L76.223 180.779L76.8421 181.776L130.463 157.035L129.844 156.038Z" fill="#3F3D56"/>
<path d="M20.2361 168.438L19.6174 169.435L73.2457 194.164L73.8644 193.167L20.2361 168.438Z" fill="#3F3D56"/>
<path d="M488.062 270.665C530.554 270.665 565 210.075 565 135.333C565 60.5905 530.554 0 488.062 0C445.571 0 411.125 60.5905 411.125 135.333C411.125 210.075 445.571 270.665 488.062 270.665Z" fill="#6C63FF"/>
<path d="M487.128 136.719C490.966 77.8001 498.701 38.0027 498.778 37.6074L497.552 37.4284C497.475 37.8239 489.73 77.6679 485.887 136.642C482.34 191.072 481.485 273.4 497.552 356.508L498.779 356.332C482.731 273.327 483.586 191.091 487.128 136.719Z" fill="#3F3D56"/>
<path d="M556.935 108.061L487.371 140.159L487.958 141.104L557.522 109.007L556.935 108.061Z" fill="#3F3D56"/>
<path d="M414.522 124.148L413.935 125.094L483.509 157.175L484.096 156.23L414.522 124.148Z" fill="#3F3D56"/>
<path d="M395.366 307.319C411.241 307.319 424.111 284.681 424.111 256.755C424.111 228.83 411.241 206.191 395.366 206.191C379.49 206.191 366.62 228.83 366.62 256.755C366.62 284.681 379.49 307.319 395.366 307.319Z" fill="#E6E6E6"/>
<path d="M395.34 258.934L395.51 259.208L421.501 247.215L420.914 246.27L395.394 258.045C396.807 235.637 399.695 220.595 399.753 220.299L398.527 220.12C398.464 220.443 395.032 238.306 393.814 264.154L368.074 252.277L367.488 253.223L393.478 265.216L393.789 264.716C392.814 286.049 393.36 312.725 398.527 339.448L399.753 339.272C394.121 310.136 393.997 281.054 395.34 258.934Z" fill="#3F3D56"/>
<path d="M541.019 367.611C387.907 325.827 249.069 328.052 159.561 337.278C62.5895 347.273 1.05631 367.398 0.446326 367.6L0 366.599C0.611802 366.397 62.2898 346.224 159.413 336.213C216.543 330.332 274.185 329.061 331.589 332.416C402.851 336.575 473.284 348.046 541.394 366.589L541.019 367.611Z" fill="#3F3D56"/>
<path d="M196.813 355.802C196.813 355.802 197.243 348.045 206.046 348.947Z" fill="#3F3D56"/>
<path d="M194.326 348.421C196.759 348.421 198.732 346.72 198.732 344.622C198.732 342.525 196.759 340.824 194.326 340.824C191.893 340.824 189.92 342.525 189.92 344.622C189.92 346.72 191.893 348.421 194.326 348.421Z" fill="#6C63FF"/>
<path d="M194.853 351.018H193.609V358.523H194.853V351.018Z" fill="#3F3D56"/>
<path d="M357.243 357.41C357.243 357.41 357.672 349.653 366.475 350.555Z" fill="#3F3D56"/>
<path d="M354.756 350.029C357.189 350.029 359.161 348.328 359.161 346.231C359.161 344.133 357.189 342.432 354.756 342.432C352.322 342.432 350.35 344.133 350.35 346.231C350.35 348.328 352.322 350.029 354.756 350.029Z" fill="#6C63FF"/>
<path d="M355.282 352.626H354.039V360.131H355.282V352.626Z" fill="#3F3D56"/>
<path d="M92.9694 344.009C92.9694 344.009 93.3988 336.252 102.202 337.154Z" fill="#3F3D56"/>
<path d="M90.4821 336.627C92.9154 336.627 94.8879 334.927 94.8879 332.829C94.8879 330.731 92.9154 329.031 90.4821 329.031C88.0489 329.031 86.0764 330.731 86.0764 332.829C86.0764 334.927 88.0489 336.627 90.4821 336.627Z" fill="#6C63FF"/>
<path d="M91.0089 339.225H89.7653V346.73H91.0089V339.225Z" fill="#3F3D56"/>
<path d="M160.748 333.823C160.748 333.823 161.177 326.067 169.98 326.968Z" fill="#3F3D56"/>
<path d="M158.26 326.442C160.694 326.442 162.666 324.742 162.666 322.644C162.666 320.546 160.694 318.846 158.26 318.846C155.827 318.846 153.855 320.546 153.855 322.644C153.855 324.742 155.827 326.442 158.26 326.442Z" fill="#6C63FF"/>
<path d="M158.787 329.04H157.544V336.545H158.787V329.04Z" fill="#3F3D56"/>
<path d="M330.505 348.297C330.505 348.297 330.934 340.54 339.737 341.442Z" fill="#3F3D56"/>
<path d="M328.017 340.916C330.451 340.916 332.423 339.215 332.423 337.118C332.423 335.02 330.451 333.32 328.017 333.32C325.584 333.32 323.612 335.02 323.612 337.118C323.612 339.215 325.584 340.916 328.017 340.916Z" fill="#6C63FF"/>
<path d="M328.544 343.513H327.3V351.018H328.544V343.513Z" fill="#3F3D56"/>
<path d="M521.715 332.748L547.308 365.462L523.48 386.004L520.392 380.678L525.687 370.027C525.687 370.027 524.804 360.136 521.715 357.474C518.627 354.811 504.948 338.834 504.948 338.834L521.715 332.748Z" fill="#FFB8B8"/>
<path d="M489.062 226.996C489.062 226.996 493.915 233.618 483.766 262.148C483.766 262.148 531.105 331.025 523.604 335.59C516.103 340.154 495.803 350.257 490.508 347.214C485.213 344.17 446.701 241.071 446.701 241.071L489.062 226.996Z" fill="#2F2E41"/>
<path d="M542.675 359.566L550.397 366.223C554.369 369.647 557.016 374.592 549.515 378.776C542.013 382.961 515.979 398.557 507.154 393.612C498.329 388.667 517.744 384.102 517.744 384.102C517.744 384.102 520.955 373.84 522.659 376.118C524.363 378.396 524.363 382.961 524.363 382.961L542.675 359.566Z" fill="#2F2E41"/>
<path d="M449.349 350.626C449.349 350.626 435.229 373.07 435.229 375.733C435.229 378.396 436.111 386.004 436.111 386.004L409.194 391.71L399.928 387.906L403.017 381.059C403.017 381.059 419.785 376.113 423.315 366.603C426.845 357.093 430.816 347.203 430.816 347.203L449.349 350.626Z" fill="#FFB8B8"/>
<path d="M465.676 127.331C475.911 127.331 484.208 120.178 484.208 111.354C484.208 102.53 475.911 95.3773 465.676 95.3773C455.44 95.3773 447.143 102.53 447.143 111.354C447.143 120.178 455.44 127.331 465.676 127.331Z" fill="#FFB8B8"/>
<path d="M460.822 125.049L469.67 146.965L489.062 139.504C489.062 139.504 475.824 122.005 475.824 119.723L460.822 125.049Z" fill="#FFB8B8"/>
<path d="M458.174 203.031H481.561C481.561 203.031 498.329 225.094 488.621 248.299C487.134 251.852 485.659 256.829 484.186 262.714C480.798 276.248 477.426 294.581 473.969 311.427C469.115 335.09 464.095 355.819 458.638 356.196C447.606 356.956 426.155 356.829 426.155 353.025C426.155 349.221 440.524 239.169 440.524 239.169L443.613 234.604L444.196 214.72C444.288 211.583 445.804 208.601 448.417 206.416C451.03 204.23 454.533 203.015 458.174 203.031V203.031Z" fill="#2F2E41"/>
<path d="M435.008 375.543C435.008 375.543 440.082 382.961 438.759 388.286C437.435 393.612 435.229 392.851 425.521 393.612C415.813 394.373 382.719 394.373 382.719 389.047C382.719 383.721 408.535 376.805 408.644 378.932C408.753 381.059 409.636 385.243 406.988 386.004C404.34 386.765 406.767 386.194 406.767 386.194L435.008 375.543Z" fill="#2F2E41"/>
<path d="M460.825 250.511C460.825 250.511 458.906 277.533 446.103 269.489C433.301 261.444 451.092 246.913 451.092 246.913L460.825 250.511Z" fill="white"/>
<path d="M486.377 214.922C486.993 215.161 487.672 215.252 488.342 215.183C489.013 215.115 489.649 214.89 490.182 214.534C490.957 214.01 491.472 213.253 491.626 212.414C493.477 203.215 495.73 177.713 497.028 164.817C498.657 148.636 490.521 136.103 490.453 136.027L485.658 130.344C485.16 129.75 484.444 129.319 483.626 129.121C482.807 128.923 481.935 128.969 481.152 129.253C481.152 129.253 466.184 142.641 466.128 143.158C465.894 145.377 464.112 150.296 454.827 158.301C444.667 167.059 444.611 174.704 444.836 176.838C444.85 176.978 444.858 177.119 444.858 177.259C444.839 178.216 444.99 179.171 445.306 180.089C449.561 191.655 446.229 205.501 440.877 219.955C440.674 220.608 440.712 221.3 440.985 221.933C441.258 222.567 441.753 223.112 442.401 223.493C443.964 224.409 442.09 223.049 442.647 223.638C446.336 227.534 451.643 222.104 457.714 216.179C459.829 214.115 462.226 211.776 465.052 209.34C468.936 205.991 476.358 213.633 479.809 213.633C482.079 213.656 484.319 214.096 486.377 214.922V214.922Z" fill="#575A89"/>
<path d="M488.435 141.927C488.435 141.927 498.129 148.975 492.622 158.114C487.115 167.254 487.847 173.995 487.847 173.995C487.847 173.995 486.381 236.78 469.173 233.73L461.346 252.359L447.21 247.961L455.384 231.529C455.384 231.529 448.837 231.178 450.75 227.333C452.094 224.632 459.333 195.32 463.523 178.111C465.299 170.818 466.527 165.699 466.527 165.699C466.527 165.699 472.097 140.026 488.435 141.927Z" fill="#575A89"/>
<path opacity="0.2" d="M490.469 173.834L485.018 204.662L487.959 171.698L490.469 173.834Z" fill="black"/>
<path d="M445.456 104.275C445.456 104.275 442.34 83.3715 467.762 90.2263C467.762 90.2263 485.919 87.3543 491.873 106.933L497.902 127.457L494.964 126.078L493.594 128.659L488.833 129.699L486.795 126.213L485.81 130.446L446.811 133.798C446.811 133.798 464.278 124.893 464.555 108.933L461.228 111.964L445.456 104.275Z" fill="#2F2E41"/>
<path opacity="0.2" d="M474.457 312.629L483.153 262.676L476.081 316.602L474.457 312.629Z" fill="black"/>
<path d="M488.669 98.8847C494.085 98.8847 498.475 95.0999 498.475 90.431C498.475 85.7621 494.085 81.9772 488.669 81.9772C483.253 81.9772 478.863 85.7621 478.863 90.431C478.863 95.0999 483.253 98.8847 488.669 98.8847Z" fill="#2F2E41"/>
<path d="M478.565 88.3614C478.726 86.2166 479.829 84.2053 481.65 82.7373C483.472 81.2693 485.873 80.455 488.366 80.4602C488.164 80.438 487.963 80.4111 487.757 80.3997C486.471 80.3278 485.182 80.475 483.962 80.8329C482.743 81.1908 481.617 81.7523 480.65 82.4853C479.682 83.2184 478.891 84.1086 478.323 85.1052C477.754 86.1017 477.419 87.1851 477.336 88.2933C477.254 89.4015 477.425 90.513 477.841 91.5641C478.257 92.6152 478.909 93.5854 479.76 94.4192C480.61 95.2531 481.643 95.9342 482.8 96.4238C483.956 96.9133 485.213 97.2016 486.498 97.2723C486.705 97.2837 486.908 97.2792 487.112 97.2796C484.639 97.0095 482.378 95.9367 480.79 94.2798C479.202 92.6228 478.406 90.5063 478.565 88.3614V88.3614Z" fill="#2F2E41"/>
<path opacity="0.2" d="M460.685 183.44L452.057 223.304L463.24 179.274L460.685 183.44Z" fill="black"/>
<path d="M461.223 122.868L456.194 126.136C451.015 123.889 447.131 118.691 445.719 113.73L451.199 111.346C451.63 116.407 455.796 119.771 461.223 122.868Z" fill="white"/>
<path d="M463.311 112.066H450.781C450.671 112.066 450.564 112.028 450.486 111.961C450.408 111.893 450.364 111.802 450.364 111.706C450.364 111.611 450.408 111.519 450.486 111.452C450.564 111.384 450.671 111.346 450.781 111.346H463.311C463.422 111.346 463.528 111.384 463.606 111.452C463.684 111.519 463.728 111.611 463.728 111.706C463.728 111.802 463.684 111.893 463.606 111.961C463.528 112.028 463.422 112.066 463.311 112.066V112.066Z" fill="white"/>
<path d="M460.805 122.868C460.737 122.868 460.67 122.853 460.609 122.826C460.549 122.798 460.497 122.758 460.459 122.71C460.421 122.661 460.397 122.605 460.39 122.546C460.383 122.488 460.392 122.429 460.418 122.374L463.759 115.173C463.779 115.129 463.809 115.089 463.847 115.055C463.886 115.021 463.931 114.994 463.982 114.975C464.032 114.956 464.086 114.946 464.141 114.946C464.196 114.945 464.251 114.954 464.302 114.971C464.353 114.989 464.399 115.015 464.438 115.048C464.478 115.081 464.509 115.121 464.531 115.164C464.552 115.208 464.564 115.255 464.564 115.302C464.565 115.349 464.554 115.396 464.534 115.44L461.192 122.641C461.162 122.708 461.108 122.765 461.039 122.806C460.97 122.846 460.888 122.868 460.805 122.868V122.868Z" fill="white"/>
<path d="M464.154 116.321C465.846 116.321 467.218 114.665 467.218 112.622C467.218 110.579 465.846 108.924 464.154 108.924C462.461 108.924 461.089 110.579 461.089 112.622C461.089 114.665 462.461 116.321 464.154 116.321Z" fill="#FFB8B8"/>
<path d="M248.225 123.763L280.862 130.202L294.651 107.781L266.745 98.3883L248.225 123.763Z" fill="#2F2E41"/>
<path d="M265.565 244.457C265.565 244.457 255.074 265.183 255.074 271.213C255.074 271.213 259.227 287.605 257.915 292.128L253.325 300.606L243.709 297.215L241.086 274.604L241.523 238.428L265.565 244.457Z" fill="#FFB9B9"/>
<path d="M271.466 120.477C271.466 120.477 272.341 132.913 270.592 136.681C268.843 140.45 277.149 147.61 277.149 147.61L290.263 132.913C290.263 132.913 281.52 125.376 283.706 117.086L271.466 120.477Z" fill="#FFB9B9"/>
<path d="M244.146 206.585C244.146 206.585 231.469 226.934 243.709 225.427C255.948 223.92 251.796 206.02 251.796 206.02" fill="#E6E6E6"/>
<path d="M251.795 206.02L255.948 170.408L255.73 148.74L246.113 150.247V170.22L244.146 206.585" fill="#FFB9B9"/>
<path d="M241.304 294.577L260.101 288.171L262.287 320.202C262.287 320.202 266.221 330 264.909 333.768C264.909 333.768 265.784 340.174 263.598 340.551C261.412 340.928 255.293 341.682 254.855 341.305C254.418 340.928 254.418 339.798 254.418 339.798C254.418 339.798 250.047 342.435 249.61 345.45C249.61 345.45 231.25 350.349 230.813 345.827C230.376 341.305 239.993 337.537 239.993 337.537L247.424 327.739L241.304 294.577Z" fill="#2F2E41"/>
<path d="M304.688 244.457C304.688 244.457 294.197 265.183 294.197 271.213C294.197 271.213 298.35 287.605 297.038 292.128L292.448 300.606L282.832 297.215L280.209 274.604L280.646 238.428L304.688 244.457Z" fill="#FFB9B9"/>
<path d="M281.083 294.577L299.88 288.171L302.065 320.202C302.065 320.202 305.999 330 304.688 333.768C304.688 333.768 305.562 340.174 303.377 340.551C301.191 340.928 295.071 341.682 294.634 341.305C294.197 340.928 294.197 339.798 294.197 339.798C294.197 339.798 289.826 342.435 289.388 345.45C289.388 345.45 271.029 350.349 270.592 345.827C270.155 341.305 279.772 337.537 279.772 337.537L287.203 327.739L281.083 294.577Z" fill="#2F2E41"/>
<path d="M289.829 111.812C289.827 114.779 288.556 117.642 286.26 119.853C283.963 122.063 280.801 123.466 277.379 123.793C273.958 124.119 270.517 123.347 267.715 121.623C264.912 119.899 262.946 117.345 262.191 114.45C261.961 113.585 261.846 112.699 261.849 111.812C261.851 108.614 263.326 105.549 265.95 103.289C268.573 101.029 272.13 99.7592 275.839 99.7592C279.547 99.7592 283.104 101.029 285.728 103.289C288.351 105.549 289.826 108.614 289.829 111.812V111.812Z" fill="#FFB9B9"/>
<path d="M277.586 135.927L288.441 131.068L293.323 134.42C293.323 134.42 305.125 134.043 309.496 138.565C313.868 143.087 316.272 154.581 316.272 154.581C316.272 154.581 301.847 151.943 303.595 162.495L300.972 156.465L298.568 161.553L269.281 170.22L256.167 151.001C256.167 151.001 247.424 148.74 244.364 154.016C244.364 154.016 245.02 134.985 253.544 134.42C259.277 134.04 263.598 134.043 263.598 134.043L268.406 133.29L271.486 132.347L277.586 135.927Z" fill="#575A89"/>
<path d="M296.164 177.192C296.164 177.192 319.113 236.544 312.556 244.834C312.556 244.834 288.077 255.386 239.119 241.066L259.008 174.554C271.225 172.4 283.611 173.279 296.164 177.192Z" fill="#2F2E41"/>
<path d="M296.164 177.191L302.623 158.057C294.875 150.793 301.562 134.686 301.562 134.686L292.214 132.959C292.214 132.959 282.832 154.77 273.215 152.132C263.598 149.494 268.844 132.536 268.844 132.536L260.101 133.29L256.167 146.479L259.008 174.554C270.858 173.677 283.286 174.697 296.164 177.191Z" fill="#575A89"/>
<path d="M307.529 206.02L310.589 170.22L311.463 148.74L301.847 150.247V170.22L299.879 206.585" fill="#FFB9B9"/>
<path d="M299.88 206.585C299.88 206.585 287.203 226.934 299.442 225.427C311.682 223.92 307.529 206.02 307.529 206.02" fill="white"/>
<path d="M316.272 154.581C316.272 154.581 314.718 135.228 301.725 135.295V157.676C301.725 157.676 311.463 152.697 316.272 154.581Z" fill="#575A89"/>
<path d="M280.312 114.924C280.238 114.924 280.166 114.904 280.105 114.867C280.045 114.83 279.999 114.778 279.975 114.718C279.95 114.658 279.948 114.592 279.969 114.531C279.989 114.47 280.031 114.416 280.089 114.376L287.223 109.456C287.259 109.43 287.301 109.411 287.347 109.4C287.392 109.388 287.439 109.384 287.486 109.389C287.533 109.393 287.578 109.405 287.619 109.425C287.661 109.444 287.697 109.471 287.726 109.502C287.756 109.534 287.778 109.571 287.791 109.61C287.804 109.648 287.808 109.689 287.802 109.73C287.797 109.77 287.782 109.809 287.759 109.844C287.736 109.88 287.706 109.911 287.669 109.936L280.535 114.856C280.471 114.9 280.393 114.924 280.312 114.924Z" fill="white"/>
<path d="M280.852 122.304C280.695 122.47 280.538 122.636 280.374 122.79C278.481 123.529 276.421 123.896 274.343 123.864C272.265 123.831 270.221 123.4 268.361 122.601C266.5 121.803 264.87 120.657 263.587 119.247C262.305 117.837 261.403 116.198 260.948 114.45L267.707 113.378L280.852 114.45C277.841 117.611 278.205 118.706 280.852 122.304Z" fill="white"/>
<path d="M267.94 94.9314C267.94 94.9314 260.71 96.1037 259.038 103.877C258.776 105.188 258.729 106.524 258.896 107.846C259.063 109.342 258.821 112.503 255.052 116.224C252.593 118.638 250.302 121.174 248.19 123.821V123.821L255.745 125.555L259.12 114.765C260.757 109.533 263.278 104.538 266.602 99.9401L266.672 99.8441C266.672 99.8441 269.181 105.624 275.906 106.416L273.832 104.063C273.832 104.063 281.694 107.98 286.148 109.177C286.656 109.314 287.112 109.567 287.465 109.911C287.819 110.254 288.057 110.674 288.154 111.125C288.251 111.577 288.204 112.042 288.016 112.472C287.829 112.902 287.51 113.279 287.092 113.564C287.061 113.586 287.029 113.607 286.996 113.629C283.72 115.774 277.036 120.892 279.677 125.843C282.317 130.795 279.238 131.698 279.238 131.698L284.916 129.836L287.515 128.876L287.252 130.533L299.938 130.762C299.938 130.762 303.367 130.744 297.277 122.855C297.277 122.855 295.808 119.897 297.014 117.637C297.982 115.926 298.464 114.04 298.42 112.137C298.037 104.183 294.15 88.0028 267.94 94.9314Z" fill="#2F2E41"/>
<path d="M89.9748 321.481C89.9748 321.481 89.9748 372.655 76.3512 386.077C76.3512 386.077 73.4318 392.788 72.4587 395.305C71.9146 396.738 71.2645 398.139 70.5125 399.5V402.855C70.5125 402.855 44.2383 400.339 41.319 394.466L46.1845 389.433C46.1845 389.433 47.1577 388.594 46.1845 386.077C45.2114 383.56 48.1308 383.56 48.1308 383.56L54.9426 370.138L53.9695 314.77L58.8351 238.43L100.679 236.752L89.9748 321.481Z" fill="#2F2E41"/>
<path d="M68.5662 397.822C68.5662 397.822 75.3781 415.439 68.5662 416.278C61.7544 417.117 2.39431 417.956 3.36742 411.244C4.34054 404.533 23.8029 405.372 23.8029 405.372L44.2383 394.466L68.5662 397.822Z" fill="#2F2E41"/>
<path d="M128.899 238.43C128.899 238.43 130.846 249.336 123.061 261.08C115.276 272.825 120.141 312.254 120.141 312.254L189.233 364.266C189.233 364.266 175.609 384.399 170.744 383.561C165.878 382.722 89.0017 329.032 89.0017 329.032L58.8351 241.786L128.899 238.43Z" fill="#2F2E41"/>
<path d="M188.283 362.043C188.283 362.043 209.19 366.514 206.366 371.923C203.541 377.332 172.584 421.004 166.53 416.702C160.476 412.401 171.717 398.679 171.717 398.679L171.972 377.961L188.283 362.043Z" fill="#2F2E41"/>
<path d="M113.33 82.395C113.337 86.8145 111.575 91.1008 108.34 94.5296C105.783 97.2623 102.407 99.3397 98.5776 100.537C94.7486 101.734 90.6127 102.006 86.6176 101.322C84.6172 100.989 82.6812 100.414 80.8664 99.6158C77.9843 98.3634 75.4506 96.5882 73.4395 94.412C71.4283 92.2358 69.9873 89.7102 69.2154 87.0085C68.7805 85.4994 68.5621 83.95 68.565 82.395C68.565 77.2775 70.9232 72.3697 75.1206 68.7511C79.3181 65.1326 85.0111 63.0997 90.9473 63.0997C96.8834 63.0997 102.576 65.1326 106.774 68.7511C110.971 72.3697 113.33 77.2775 113.33 82.395V82.395Z" fill="#A0616A"/>
<path d="M108.558 89.2014L107.568 114.03L88.7358 120.445C88.7358 120.445 86.8889 95.0219 84.2819 93.6124C81.6749 92.203 108.558 89.2014 108.558 89.2014Z" fill="#A0616A"/>
<path d="M84.1361 123.5C84.1361 123.5 110.41 100.849 117.222 101.688C124.034 102.527 124.034 105.044 124.034 106.722C124.034 108.4 122.088 109.238 124.034 110.077C125.98 110.916 127.926 110.077 127.926 112.594C127.926 115.111 145.442 140.278 139.604 167.962C133.765 195.646 126.953 209.068 129.873 224.168C132.792 239.269 130.846 242.624 130.846 242.624C130.846 242.624 57.8619 247.658 56.8888 241.786C55.9157 235.913 59.8082 239.269 54.9426 235.074C50.077 230.88 52.0232 230.88 52.0232 228.363C52.0232 225.846 73.4318 123.5 84.1361 123.5Z" fill="#575A89"/>
<path d="M97.7597 237.591C97.7597 237.591 86.0823 261.919 77.3243 256.047C68.5662 250.175 81.2167 230.041 81.2167 230.041L97.7597 237.591Z" fill="white"/>
<path d="M125.98 125.178C125.98 125.178 148.844 127.434 140.331 163.637C131.819 199.84 98.7329 241.786 98.7329 241.786L76.3512 232.558L105.545 183.062L98.7329 152.023C98.7329 152.023 94.8404 122.661 125.98 125.178Z" fill="#575A89"/>
<path opacity="0.2" d="M106.031 183.482L73.9182 229.621L76.8377 232.138L106.031 183.482Z" fill="black"/>
<path opacity="0.2" d="M123.029 204.983L97.2732 241.366H106.032L123.029 204.983Z" fill="black"/>
<path opacity="0.2" d="M64.8494 271.101L63.5557 271.526L89.1632 329.407L90.457 328.982L64.8494 271.101Z" fill="black"/>
<path d="M84.2741 128.106C85.0386 128.106 85.6584 127.572 85.6584 126.913C85.6584 126.253 85.0386 125.719 84.2741 125.719C83.5095 125.719 82.8898 126.253 82.8898 126.913C82.8898 127.572 83.5095 128.106 84.2741 128.106Z" fill="#D0CDE1"/>
<path d="M72.5073 160.328C72.6552 160.328 72.7992 160.287 72.9182 160.211C73.0371 160.136 73.1249 160.029 73.1684 159.907L84.9352 127.089C84.9622 127.014 84.9719 126.935 84.9636 126.857C84.9553 126.779 84.9292 126.703 84.8868 126.634C84.8445 126.564 84.7866 126.503 84.7167 126.453C84.6467 126.402 84.5659 126.365 84.479 126.342C84.3921 126.318 84.3007 126.31 84.2101 126.318C84.1195 126.325 84.0315 126.347 83.9511 126.384C83.8706 126.421 83.7994 126.471 83.7414 126.531C83.6834 126.592 83.6398 126.661 83.613 126.736L71.8463 159.555C71.8144 159.644 71.8073 159.739 71.8255 159.831C71.8437 159.923 71.8866 160.01 71.9509 160.085C72.0152 160.16 72.099 160.221 72.1956 160.263C72.2923 160.306 72.399 160.328 72.5073 160.328V160.328Z" fill="#D0CDE1"/>
<path d="M86.4597 97.1729L80.8665 101.76C75.106 99.261 69.542 92.5273 67.9717 87.0086L75.3104 84.3574C75.7895 89.9861 80.4241 93.7282 86.4597 97.1729Z" fill="white"/>
<path d="M87.8543 86.7603C87.8322 86.7603 87.81 86.759 87.7881 86.7563L74.7805 85.1544C74.7201 85.147 74.662 85.1294 74.6095 85.1027C74.5569 85.0759 74.511 85.0405 74.4744 84.9984C74.4377 84.9564 74.4111 84.9085 74.3959 84.8576C74.3807 84.8066 74.3773 84.7536 74.3858 84.7015C74.3944 84.6494 74.4148 84.5993 74.4459 84.5541C74.4769 84.5088 74.518 84.4692 74.5668 84.4376C74.6156 84.406 74.6711 84.383 74.7302 84.3699C74.7893 84.3568 74.8508 84.3539 74.9112 84.3613L87.9187 85.9632C88.0351 85.9774 88.1408 86.0291 88.2147 86.1078C88.2886 86.1866 88.3252 86.2865 88.317 86.3876C88.3089 86.4886 88.2566 86.5833 88.1707 86.6524C88.0849 86.7216 87.9718 86.7601 87.8543 86.7603V86.7603Z" fill="white"/>
<path d="M85.9952 97.1729C85.914 97.173 85.8343 97.1547 85.7639 97.1199C85.6935 97.0851 85.6349 97.0351 85.594 96.9747C85.553 96.9143 85.5311 96.8457 85.5305 96.7758C85.5299 96.7058 85.5506 96.637 85.5905 96.5761L89.9003 89.9618C89.9301 89.9158 89.9702 89.8754 90.0181 89.8428C90.0661 89.8101 90.1211 89.786 90.1799 89.7717C90.2387 89.7575 90.3002 89.7534 90.3609 89.7596C90.4215 89.7659 90.4802 89.7824 90.5334 89.8082C90.5867 89.8341 90.6335 89.8687 90.6712 89.9102C90.7089 89.9516 90.7367 89.9991 90.7531 90.0498C90.7694 90.1006 90.774 90.1536 90.7666 90.2059C90.7591 90.2582 90.7398 90.3087 90.7097 90.3545L86.3998 96.9687C86.3595 97.0307 86.3008 97.0823 86.2296 97.1182C86.1585 97.1541 86.0776 97.1729 85.9952 97.1729V97.1729Z" fill="white"/>
<path d="M101.078 93.9877C99.2662 93.1618 97.1614 92.9915 95.2002 92.4782C88.1836 90.6416 83.4832 83.8036 84.9838 77.6158C85.2611 76.8222 85.3856 75.9947 85.3523 75.1663C85.09 73.3337 82.9148 72.1512 80.829 71.7313C78.7431 71.3114 76.5238 71.3724 74.5302 70.6971C71.452 69.6546 69.4073 66.9275 68.964 64.1021C68.5208 61.2768 69.4933 58.3952 71.075 55.8913L71.8284 57.7604C72.9775 56.9218 73.8304 55.8221 74.2902 54.5863C75.1465 54.7103 75.9514 55.0218 76.628 55.4908C77.3047 55.9599 77.8303 56.5709 78.1545 57.2652C79.3639 57.88 79.5381 55.3553 80.8739 54.9828C81.4333 54.8269 82.0085 55.1231 82.5413 55.3374C85.2331 56.4197 88.3605 55.4943 91.2479 54.8944C96.2479 53.8604 101.46 53.8551 106.463 54.8789C109.787 55.5624 113.076 56.7525 115.455 58.8674C117.408 60.6044 118.625 62.8504 119.661 65.0985C122.212 70.6329 123.897 76.6212 123.055 82.532C122.354 87.3689 120.006 91.9185 116.309 95.6066C114.383 97.5196 108.099 104.194 104.654 103.056C100.325 101.626 106.179 96.3128 101.078 93.9877Z" fill="#2F2E41"/>
</svg>
